<svg xmlns="http://www.w3.org/2000/svg" viewBox="0 0 30.18 30.18"><defs><style>.cls-1{fill:#fff;}</style></defs><title>资源 1an</title><g id="图层_2" data-name="图层 2"><g id="图层_1-2" data-name="图层 1"><path class="cls-1" d="M15.1,0A15.09,15.09,0,0,1,25.76,25.76l0,.08A15.1,15.1,0,0,1,4.43,4.41l.06-.07A15.06,15.06,0,0,1,15.1,0ZM13,2.49h0c0,.23-.08.47-.13.73-.27,1.49-.59,3.25-1.42,4.06-.35.35-2.31,1.78-2.31,2.12,0,.1.44.1,2.11.1h0a6.27,6.27,0,0,1,2.83.8,5.14,5.14,0,0,1,1.7,1.49,2.82,2.82,0,0,1,.45,2.27h0a3.77,3.77,0,0,1-.91,1.62c-1.66,1.88-1.63,2.08-1.53,3A13.27,13.27,0,0,1,14,20.37c0,.4,0,.79,0,1.15a14.81,14.81,0,0,1,0,2.21v0c-.42,3.37-3.35,1-4.39-.17A16.37,16.37,0,0,1,7.06,20c-.09-.24-.52-.45-1-.7-1.09-.53-2.35-1.15-2.4-3.08A9.36,9.36,0,0,1,4,13.33c.08-.31.4-.41.26-.45A2.73,2.73,0,0,0,3.21,13c-.26.05-.5.11-.74.13a12.91,12.91,0,0,0-.15,2,12.74,12.74,0,0,0,3.74,9h0a12.72,12.72,0,0,0,4.86,3c1.09-.2,2.21-.69,3.24-.89,2.34-.45,4.63-.87,7.16,0a12.85,12.85,0,0,0,2.75-2.07l.06-.06a11.71,11.71,0,0,0,1.7-2.1,5.93,5.93,0,0,1-1.43.95,1.74,1.74,0,0,1-1.58.11,1.84,1.84,0,0,1-.28-.21l0-.06c-1-1.22-.52-2.83,0-4.47s1.18-3.58-1-4.25a4.3,4.3,0,0,1-1-.44,5.13,5.13,0,0,1-2-1.82c-1.08-1.76-.36-2.75.81-4,.18-.21.36-.4.49-.57-.91.07-2.11.12-2.67-1.4h0a2.47,2.47,0,0,1-.17-.7v0c-.15-1.28-.86-1.83-1.72-2.75H15.1A11.54,11.54,0,0,0,13,2.49ZM2.78,11.64h.13a3.34,3.34,0,0,1,1.82-.08c1.12.38,1,1,.65,2.14A7.69,7.69,0,0,0,5,16.13c0,1.1.89,1.52,1.64,1.89a3,3,0,0,1,1.65,1.4,15.7,15.7,0,0,0,2.26,3.25c.27.3,1.82,2.21,2,.91a18.56,18.56,0,0,0,0-2c0-.35,0-.75,0-1.18,0-.63-.06-1.1-.1-1.49-.18-1.46-.23-1.75,1.86-4.1a2.65,2.65,0,0,0,.59-1,1.41,1.41,0,0,0-.25-1.17,3.6,3.6,0,0,0-1.22-1.06,4.77,4.77,0,0,0-2.16-.62h0c-2.72,0-3.45,0-3.49-1.44s1.84-2.31,2.7-3.16c.53-.52.81-2,1-3.31l0-.17A12.68,12.68,0,0,0,6.11,6l0,.07A12.75,12.75,0,0,0,2.78,11.64ZM19.17,27.2h0a16.25,16.25,0,0,0-4.75.43,3.64,3.64,0,0,0-.7.16,13.23,13.23,0,0,0,5.45-.59Zm8.25-9.4h0l.21-.23a12.93,12.93,0,0,0,.24-2.48,12.69,12.69,0,0,0-3.74-9v0a12.68,12.68,0,0,0-7-3.56,4.4,4.4,0,0,1,1.11,2.42h0a1.33,1.33,0,0,0,.08.39c.21.57.82.54,1.3.5.76,0,1.37-.06,1.6.76s-.35,1.42-1,2.13-1.33,1.26-.64,2.37a3.84,3.84,0,0,0,1.47,1.34,4.49,4.49,0,0,0,.79.31c3.57,1.1,2.75,3.61,2,6-.4,1.23-.82,2.45-.34,3.08l.31-.13a6.22,6.22,0,0,0,1.3-.91A11.62,11.62,0,0,0,27.42,17.79ZM19.84,7.1h0l.09-.15C19.89,6.77,19.89,7,19.84,7.1Z"/></g></g></svg>