<svg xmlns="http://www.w3.org/2000/svg" viewBox="0 0 25.91 30.18"><defs><style>.cls-1{fill:#fff;}</style></defs><title>资源 2an</title><g id="图层_2" data-name="图层 2"><g id="图层_1-2" data-name="图层 1"><path class="cls-1" d="M24.74,3.43a1.17,1.17,0,0,1,1.17,1.16V29a1.17,1.17,0,0,1-1.17,1.15H4.61a6.73,6.73,0,0,1-3-.64A2.59,2.59,0,0,1,0,27.29V2.84A2.62,2.62,0,0,1,1.65.63a6.74,6.74,0,0,1,3-.63H24.74a1.17,1.17,0,0,1,1.17,1.16,1.16,1.16,0,0,1-1.17,1.15H4.61a4.08,4.08,0,0,0-1.93.4l-.37.18a2.38,2.38,0,0,1,.37.16,4.32,4.32,0,0,0,1.93.38H24.74ZM7.86,23.79h0a.69.69,0,0,1-.7.69.7.7,0,0,1-.69-.7,3.28,3.28,0,0,1,1.05-2.44,4.66,4.66,0,0,1,2.66-1.2h0a.4.4,0,0,0,.26-.11l0,0a3.5,3.5,0,0,1-.94-1.54A2.78,2.78,0,0,0,9.34,18l0,0a3.05,3.05,0,0,1-.78-1.13,1.79,1.79,0,0,1,0-1.48A4.27,4.27,0,0,1,8.38,14a5.22,5.22,0,0,1,.28-1.83,3.59,3.59,0,0,1,1.39-1.9,4.5,4.5,0,0,1,2.36-.67,7.67,7.67,0,0,1,1.23.07,2,2,0,0,1,1.29.67,2.07,2.07,0,0,1,1.56.81,4.76,4.76,0,0,1,1,2,4.81,4.81,0,0,1,0,1.19,5.83,5.83,0,0,1-.2,1,1.72,1.72,0,0,1,.06,1.55l0,.06A3.1,3.1,0,0,1,16.54,18l0,0s-.1.23-.2.44A3.74,3.74,0,0,1,15.41,20l0,.06a.39.39,0,0,0,.26.12h0a4.73,4.73,0,0,1,2.67,1.21,3.24,3.24,0,0,1,1,2.44.68.68,0,0,1-.69.7.7.7,0,0,1-.69-.69,1.89,1.89,0,0,0-.61-1.44,3.15,3.15,0,0,0-1.84-.82h0a1.7,1.7,0,0,1-1.11-.5h0A1.52,1.52,0,0,1,14,19.85v-.2a.74.74,0,0,1,.34-.62,2.27,2.27,0,0,0,.71-1.1,2.5,2.5,0,0,1,.54-1l0,0a2,2,0,0,0,.4-.58l0,0a.39.39,0,0,0,0-.43.62.62,0,0,1-.17-.43l0,0a.61.61,0,0,1,0-.3,6.26,6.26,0,0,0,.21-1,2.65,2.65,0,0,0,0-.82,2.9,2.9,0,0,0-.64-1.26c-.17-.2-.33-.34-.45-.32a1.1,1.1,0,0,1-.63-.09,1,1,0,0,1-.45-.38l0,0c-.07-.11-.25-.16-.46-.2a5.48,5.48,0,0,0-1,0,2.92,2.92,0,0,0-1.62.43A2.18,2.18,0,0,0,10,12.62,3.9,3.9,0,0,0,9.75,14,3,3,0,0,0,10,15.14a.72.72,0,0,1-.12.77.42.42,0,0,0,0,.43,2.27,2.27,0,0,0,.4.61l0,0a2.24,2.24,0,0,1,.55,1,2.14,2.14,0,0,0,.73,1.1.72.72,0,0,1,.35.59v.23A1.58,1.58,0,0,1,11.43,21a1.81,1.81,0,0,1-1.12.51,3.22,3.22,0,0,0-1.84.82A1.94,1.94,0,0,0,7.86,23.79Zm-3.25-18h0a7.7,7.7,0,0,1-2.3-.35V27.29s.16.06.37.18a4.54,4.54,0,0,0,1.93.39h19V5.76Z"/></g></g></svg>