<svg xmlns="http://www.w3.org/2000/svg" viewBox="0 0 36.01 27.86"><defs><style>.cls-1{fill:#fff;}</style></defs><title>资源 3an</title><g id="图层_2" data-name="图层 2"><g id="图层_1-2" data-name="图层 1"><path class="cls-1" d="M31.59,9.23l2,2.58,2.08,2.59a1.38,1.38,0,0,1-1.18,2.23H31.66A13.89,13.89,0,0,1,18,27.86a13.62,13.62,0,0,1-5.32-1.07,13.91,13.91,0,0,1-4.52-3,1.39,1.39,0,0,1,2-2,11.14,11.14,0,0,0,18.71-5.18H26.34A1.34,1.34,0,0,1,25,15.28a1.43,1.43,0,0,1,.28-.87l2.08-2.59,2.09-2.6A1.37,1.37,0,0,1,31.34,9Zm-.13,4.29h0l-1-1.24-1,1.24-.28.36h2.54Zm-27,5.1h0a1.08,1.08,0,0,0,.24.24,1.39,1.39,0,0,0,1.94-.22L8.68,16l2.08-2.6h0A1.38,1.38,0,0,0,9.68,11.2H7.16a11.32,11.32,0,0,1,3.37-5.65A11.11,11.11,0,0,1,18,2.77a10.87,10.87,0,0,1,4.19.84A11.59,11.59,0,0,1,25.82,6a1.38,1.38,0,1,0,1.94-2,14.51,14.51,0,0,0-4.5-3A13.42,13.42,0,0,0,18,0,13.78,13.78,0,0,0,4.33,11.2H1.48a1.47,1.47,0,0,0-1,.31A1.4,1.4,0,0,0,.3,13.45L2.36,16Zm.1-4.29h0L4.25,14H6.8l-.28.36-1,1.22Z"/></g></g></svg>