<svg xmlns="http://www.w3.org/2000/svg" viewBox="0 0 16.95 13.96"><defs><style>.cls-1{fill:#fff;}</style></defs><title>资源 4an</title><g id="图层_2" data-name="图层 2"><g id="图层_1-2" data-name="图层 1"><path class="cls-1" d="M9.86,13.92a.43.43,0,0,1-.53-.13c-.22-.22-.24-.39-.07-.52a23,23,0,0,0,2.66-2.46,11.68,11.68,0,0,0,1.61-2.92c-.44,0-.9,0-1.38,0a2.36,2.36,0,0,1-1.38-.56,4,4,0,0,1-.69-6A3.68,3.68,0,0,1,13,0a4.1,4.1,0,0,1,2,.53A3.64,3.64,0,0,1,16.49,2a6.18,6.18,0,0,1,.46,2.23,8.19,8.19,0,0,1-1.25,4.2,15.66,15.66,0,0,1-2.59,3.38A10.39,10.39,0,0,1,9.86,13.92ZM1,13.4a.44.44,0,0,1-.53-.13c-.26-.22-.28-.4-.06-.53A16.07,16.07,0,0,0,3,10.57,9.27,9.27,0,0,0,4.53,7.88c-.44,0-.9,0-1.38,0a2.36,2.36,0,0,1-1.38-.56,4,4,0,0,1-.69-6A3.68,3.68,0,0,1,4,0,4.08,4.08,0,0,1,6,.53,3.47,3.47,0,0,1,7.45,2a5.33,5.33,0,0,1,.49,2.46A7,7,0,0,1,6.76,8.41Q4.14,12.34,1,13.4Z"/></g></g></svg>