<svg xmlns="http://www.w3.org/2000/svg" viewBox="0 0 33.95 33"><defs><style>.cls-1{fill:none;stroke:#cf9866;stroke-linecap:round;stroke-linejoin:round;stroke-width:2px;}</style></defs><title>资源 8an</title><g id="图层_2" data-name="图层 2"><g id="图层_1-2" data-name="图层 1"><g id="_编组_" data-name="&lt;编组&gt;"><path id="_路径_" data-name="&lt;路径&gt;" class="cls-1" d="M31.11,1a1.84,1.84,0,0,1,1.84,1.84V30.16A1.84,1.84,0,0,1,31.11,32H2.84A1.84,1.84,0,0,1,1,30.16V14H7V2.86A1.86,1.86,0,0,1,8.83,1Z"/><path id="_路径_2" data-name="&lt;路径&gt;" class="cls-1" d="M7,14V30.13A1.84,1.84,0,0,1,5.14,32H3.69"/><path id="_路径_3" data-name="&lt;路径&gt;" class="cls-1" d="M8,32"/><rect id="_矩形_" data-name="&lt;矩形&gt;" class="cls-1" x="10.98" y="6.99" width="17.95" height="7.03"/><line id="_路径_4" data-name="&lt;路径&gt;" class="cls-1" x1="10.98" y1="18.03" x2="17.96" y2="18.03"/><line id="_路径_5" data-name="&lt;路径&gt;" class="cls-1" x1="10.98" y1="22.14" x2="26.06" y2="22.14"/><line id="_路径_6" data-name="&lt;路径&gt;" class="cls-1" x1="10.98" y1="26.01" x2="28.94" y2="26.01"/></g></g></g></svg>