<svg xmlns="http://www.w3.org/2000/svg" viewBox="0 0 35.38 31.1"><defs><style>.cls-1{fill:none;stroke:#cf9866;stroke-miterlimit:10;stroke-width:2px;}</style></defs><title>资源 5an</title><g id="图层_2" data-name="图层 2"><g id="图层_1-2" data-name="图层 1"><path id="_路径_" data-name="&lt;路径&gt;" class="cls-1" d="M6.55,5.22h22v1S30,21.23,18,21.23c0,0-11.41,1.11-11.41-14.93Z"/><path id="_路径_2" data-name="&lt;路径&gt;" class="cls-1" d="M24,12.83a6.11,6.11,0,0,1-6.19,4.45,6.52,6.52,0,0,1-5-2"/><path id="_路径_3" data-name="&lt;路径&gt;" class="cls-1" d="M24.64,7.58a14.08,14.08,0,0,1-.05,2.6"/><path id="_路径_4" data-name="&lt;路径&gt;" class="cls-1" d="M20.5,21.25v5h4a1.91,1.91,0,0,1,2,2.17V30.1H8.54V28.37s0-2.17,2-2.17h4v-5"/><line id="_路径_5" data-name="&lt;路径&gt;" class="cls-1" x1="5.69" y1="1" x2="29.57" y2="1"/><path id="_路径_6" data-name="&lt;路径&gt;" class="cls-1" d="M6.55,7H1s-.38,8.5,7.37,8.5"/><path id="_路径_7" data-name="&lt;路径&gt;" class="cls-1" d="M28.83,7h5.55s.38,8.5-7.37,8.5"/></g></g></svg>