<?xml version="1.0" encoding="utf-8"?>
<!-- Generator: Adobe Illustrator 21.1.0, SVG Export Plug-In . SVG Version: 6.00 Build 0)  -->
<svg version="1.1" id="图层_1" xmlns="http://www.w3.org/2000/svg" xmlns:xlink="http://www.w3.org/1999/xlink" x="0px" y="0px"
	 viewBox="0 0 960 1158.5" style="enable-background:new 0 0 960 1158.5;" xml:space="preserve">
<style type="text/css">
	.st0{fill:#2C2C2C;}
	.st1{fill:#D59B68;}
	.st2{font-family:'MicrosoftYaHei';}
	.st3{font-size:20px;}
	.st4{letter-spacing:2;}
	.st5{opacity:0.3;fill:none;stroke:#D59B68;stroke-width:3;stroke-linecap:round;stroke-linejoin:round;enable-background:new    ;}
	.st6{opacity:0.4;fill:none;stroke:#D59B68;stroke-width:3;stroke-linecap:round;stroke-linejoin:round;enable-background:new    ;}
	.st7{font-size:14px;}
	.st8{fill:#868686;}
	.st9{font-size:12px;}
	.st10{fill:url(#SVGID_1_);}
	.st11{opacity:0.4;fill:#D59B68;enable-background:new    ;}
	.st12{opacity:0.4;fill:url(#SVGID_2_);enable-background:new    ;}
	.st13{fill:url(#SVGID_3_);}
	.st14{font-size:36px;}
	.st15{opacity:0.5;}
	.st16{fill:url(#SVGID_4_);}
	.st17{fill:url(#SVGID_5_);}
	.st18{fill:url(#SVGID_6_);}
	.st19{fill:url(#SVGID_7_);}
	.st20{fill:url(#SVGID_8_);}
	.st21{fill:url(#SVGID_9_);}
	.st22{fill:none;}
	.st23{fill:#FF5800;}
</style>
<title>资源 21</title>
<rect class="st0" width="960" height="1158.5"/>
<text transform="matrix(1 0 0 1 36.14 74.08)" class="st1 st2 st3">跨文化核心竞争力(C</text>
<text transform="matrix(1 0 0 1 216.2 74.08)" class="st1 st2 st3">r</text>
<text transform="matrix(1 0 0 1 223.55 74.08)" class="st1 st2 st3">oss</text>
<text transform="matrix(1 0 0 1 254.78 74.08)" class="st1 st2 st3 st4"> </text>
<text transform="matrix(1 0 0 1 263.26 74.08)" class="st1 st2 st3">Cultural</text>
<text transform="matrix(1 0 0 1 338.07 74.08)" class="st1 st2 st3 st4"> </text>
<text transform="matrix(1 0 0 1 346.55 74.08)" class="st1 st2 st3">Co</text>
<text transform="matrix(1 0 0 1 372.64 74.08)" class="st1 st2 st3">r</text>
<text transform="matrix(1 0 0 1 380 74.08)" class="st1 st2 st3">e</text>
<text transform="matrix(1 0 0 1 391.35 74.08)" class="st1 st2 st3 st4"> </text>
<text transform="matrix(1 0 0 1 399.82 74.08)" class="st1 st2 st3">Compe</text>
<text transform="matrix(1 0 0 1 468.78 74.08)" class="st1 st2 st3">t</text>
<text transform="matrix(1 0 0 1 476.06 74.08)" class="st1 st2 st3">encies)</text>
<text transform="matrix(1 0 0 1 542.37 74.08)" class="st1 st2 st3 st4"> </text>
<text transform="matrix(1 0 0 1 550.85 74.08)" class="st1 st2 st3">,</text>
<text transform="matrix(1 0 0 1 555.66 74.08)" class="st1 st2 st3 st4"> </text>
<text transform="matrix(1 0 0 1 564.14 74.08)" class="st1 st2 st3">指在多元文化背景下，个人取得综合、可</text>
<text transform="matrix(1 0 0 1 36.14 110.08)" class="st1 st2 st3">持续成功所需具备的独特知识、技能、经验、品格等关键素质。本培养方案的目标即为培植具有4C</text>
<text transform="matrix(1 0 0 1 904.14 110.08)" class="st1 st2 st3">能</text>
<text transform="matrix(1 0 0 1 322.08 146.08)" class="st1 st2 st3">力的综合型国际精英，简称4C Eli</text>
<text transform="matrix(1 0 0 1 614.75 146.08)" class="st1 st2 st3">t</text>
<text transform="matrix(1 0 0 1 622.03 146.08)" class="st1 st2 st3">e.</text>
<circle class="st5" cx="480.5" cy="624.4" r="147.7"/>
<path class="st6" d="M424.8,761.2c-14.1-5.7-27.2-13.6-38.9-23.4"/>
<path class="st6" d="M574.5,738.3c-12.8,10.6-27.4,19-43,24.7"/>
<path class="st6" d="M625.3,595.1c3.3,16.7,3.8,33.8,1.4,50.6"/>
<path class="st6" d="M532.3,486c13.2,5,25.7,11.8,37,20.3"/>
<path class="st6" d="M391.8,506.3c10.6-8,22.3-14.5,34.7-19.4"/>
<path class="st6" d="M334.3,644.9c-2.2-15.8-1.8-31.9,1.1-47.5"/>
<text transform="matrix(1 0 0 1 414.93 298.82)" class="st1 st2 st7"> 理解和掌握学习规律</text>
<text transform="matrix(1 0 0 1 382 322.82)" class="st1 st2 st7">持续习得新的知识和信息的能力</text>
<text transform="matrix(1 0 0 1 332.42 354.82)" class="st8 st2 st9">The ability </text>
<text transform="matrix(1 0 0 1 395.3 354.82)" class="st8 st2 st9">t</text>
<text transform="matrix(1 0 0 1 399.67 354.82)" class="st8 st2 st9">o lea</text>
<text transform="matrix(1 0 0 1 427.48 354.82)" class="st8 st2 st9">r</text>
<text transform="matrix(1 0 0 1 432.04 354.82)" class="st8 st2 st9">n, mo</text>
<text transform="matrix(1 0 0 1 464.75 354.82)" class="st8 st2 st9">r</text>
<text transform="matrix(1 0 0 1 469.16 354.82)" class="st8 st2 st9">e impo</text>
<text transform="matrix(1 0 0 1 509.25 354.82)" class="st8 st2 st9">r</text>
<text transform="matrix(1 0 0 1 514.21 354.82)" class="st8 st2 st9">tantl</text>
<text transform="matrix(1 0 0 1 540.37 354.82)" class="st8 st2 st9">y</text>
<text transform="matrix(1 0 0 1 546.07 354.82)" class="st8 st2 st9">, how </text>
<text transform="matrix(1 0 0 1 580.56 354.82)" class="st8 st2 st9">t</text>
<text transform="matrix(1 0 0 1 584.93 354.82)" class="st8 st2 st9">o lea</text>
<text transform="matrix(1 0 0 1 612.74 354.82)" class="st8 st2 st9">r</text>
<text transform="matrix(1 0 0 1 617.3 354.82)" class="st8 st2 st9">n.</text>
<text transform="matrix(1 0 0 1 36.38 468.64)" class="st1 st2 st7">个体自主制定每个不同阶段的</text>
<text transform="matrix(1 0 0 1 36.38 492.64)" class="st1 st2 st7">学习工作目标，主动制定和确定合适的</text>
<text transform="matrix(1 0 0 1 36.38 516.64)" class="st1 st2 st7">策略来确保目标的执行和实现的能力</text>
<text transform="matrix(1 0 0 1 36.38 548.64)" class="st8 st2 st9">The ability </text>
<text transform="matrix(1 0 0 1 99.26 548.64)" class="st8 st2 st9">t</text>
<text transform="matrix(1 0 0 1 103.63 548.64)" class="st8 st2 st9">o p</text>
<text transform="matrix(1 0 0 1 122.47 548.64)" class="st8 st2 st9">ro</text>
<text transform="matrix(1 0 0 1 134.34 548.64)" class="st8 st2 st9">acti</text>
<text transform="matrix(1 0 0 1 154.66 548.64)" class="st8 st2 st9">v</text>
<text transform="matrix(1 0 0 1 160.88 548.64)" class="st8 st2 st9">ely plan one</text>
<text transform="matrix(1 0 0 1 231.05 548.64)" class="st8 st2 st9">’</text>
<text transform="matrix(1 0 0 1 242.31 548.64)" class="st8 st2 st9">s stage </text>
<text transform="matrix(1 0 0 1 36.38 568.64)" class="st8 st2 st9">g</text>
<text transform="matrix(1 0 0 1 44.06 568.64)" class="st8 st2 st9">o</text>
<text transform="matrix(1 0 0 1 51.51 568.64)" class="st8 st2 st9">als using p</text>
<text transform="matrix(1 0 0 1 112.87 568.64)" class="st8 st2 st9">r</text>
<text transform="matrix(1 0 0 1 117.29 568.64)" class="st8 st2 st9">oper stra</text>
<text transform="matrix(1 0 0 1 168.76 568.64)" class="st8 st2 st9">t</text>
<text transform="matrix(1 0 0 1 173.13 568.64)" class="st8 st2 st9">egies </text>
<text transform="matrix(1 0 0 1 206.72 568.64)" class="st8 st2 st9">t</text>
<text transform="matrix(1 0 0 1 211.09 568.64)" class="st8 st2 st9">o ensu</text>
<text transform="matrix(1 0 0 1 249.43 568.64)" class="st8 st2 st9">r</text>
<text transform="matrix(1 0 0 1 253.84 568.64)" class="st8 st2 st9">e </text>
<text transform="matrix(1 0 0 1 36.38 588.64)" class="st8 st2 st9">sustainable success in both sho</text>
<text transform="matrix(1 0 0 1 216.29 588.64)" class="st8 st2 st9">r</text>
<text transform="matrix(1 0 0 1 221.25 588.64)" class="st8 st2 st9">t</text>
<text transform="matrix(1 0 0 1 225.01 588.64)" class="st8 st2 st9">-</text>
<text transform="matrix(1 0 0 1 230.2 588.64)" class="st8 st2 st9">t</text>
<text transform="matrix(1 0 0 1 234.57 588.64)" class="st8 st2 st9">e</text>
<text transform="matrix(1 0 0 1 241.38 588.64)" class="st8 st2 st9">r</text>
<text transform="matrix(1 0 0 1 245.93 588.64)" class="st8 st2 st9">m and </text>
<text transform="matrix(1 0 0 1 36.38 608.64)" class="st8 st2 st9">long-</text>
<text transform="matrix(1 0 0 1 67.46 608.64)" class="st8 st2 st9">t</text>
<text transform="matrix(1 0 0 1 71.84 608.64)" class="st8 st2 st9">e</text>
<text transform="matrix(1 0 0 1 78.64 608.64)" class="st8 st2 st9">r</text>
<text transform="matrix(1 0 0 1 83.2 608.64)" class="st8 st2 st9">m g</text>
<text transform="matrix(1 0 0 1 105.67 608.64)" class="st8 st2 st9">o</text>
<text transform="matrix(1 0 0 1 113.13 608.64)" class="st8 st2 st9">als.</text>
<text transform="matrix(1 0 0 1 36.04 787.38)" class="st1 st2 st7">该能力是指不断进行自我</text>
<text transform="matrix(1 0 0 1 36.04 811.38)" class="st1 st2 st7">内省和理性接纳外界判断</text>
<text transform="matrix(1 0 0 1 36.04 835.38)" class="st1 st2 st7">以更加完善的认识自我</text>
<text transform="matrix(1 0 0 1 36.04 867.38)" class="st8 st2 st9">The ability </text>
<text transform="matrix(1 0 0 1 98.92 867.38)" class="st8 st2 st9">t</text>
<text transform="matrix(1 0 0 1 103.29 867.38)" class="st8 st2 st9">o sys</text>
<text transform="matrix(1 0 0 1 131.93 867.38)" class="st8 st2 st9">t</text>
<text transform="matrix(1 0 0 1 136.3 867.38)" class="st8 st2 st9">ematically e</text>
<text transform="matrix(1 0 0 1 204.4 867.38)" class="st8 st2 st9">v</text>
<text transform="matrix(1 0 0 1 210.46 867.38)" class="st8 st2 st9">alua</text>
<text transform="matrix(1 0 0 1 234.32 867.38)" class="st8 st2 st9">t</text>
<text transform="matrix(1 0 0 1 238.69 867.38)" class="st8 st2 st9">e </text>
<text transform="matrix(1 0 0 1 36.04 887.38)" class="st8 st2 st9">oneself and constantly upda</text>
<text transform="matrix(1 0 0 1 198.42 887.38)" class="st8 st2 st9">t</text>
<text transform="matrix(1 0 0 1 202.79 887.38)" class="st8 st2 st9">e one</text>
<text transform="matrix(1 0 0 1 234.98 887.38)" class="st8 st2 st9">’</text>
<text transform="matrix(1 0 0 1 246.25 887.38)" class="st8 st2 st9">s </text>
<text transform="matrix(1 0 0 1 36.04 907.38)" class="st8 st2 st9">sel</text>
<text transform="matrix(1 0 0 1 51.6 907.38)" class="st8 st2 st9">f</text>
<text transform="matrix(1 0 0 1 55.11 907.38)" class="st8 st2 st9">-e</text>
<text transform="matrix(1 0 0 1 67.11 907.38)" class="st8 st2 st9">v</text>
<text transform="matrix(1 0 0 1 73.18 907.38)" class="st8 st2 st9">aluation p</text>
<text transform="matrix(1 0 0 1 130.93 907.38)" class="st8 st2 st9">r</text>
<text transform="matrix(1 0 0 1 135.34 907.38)" class="st8 st2 st9">o</text>
<text transform="matrix(1 0 0 1 142.74 907.38)" class="st8 st2 st9">file </text>
<text transform="matrix(1 0 0 1 163.65 907.38)" class="st8 st2 st9">b</text>
<text transform="matrix(1 0 0 1 171.14 907.38)" class="st8 st2 st9">ased on changing </text>
<text transform="matrix(1 0 0 1 36.04 927.38)" class="st8 st2 st9">envi</text>
<text transform="matrix(1 0 0 1 59.74 927.38)" class="st8 st2 st9">r</text>
<text transform="matrix(1 0 0 1 64.15 927.38)" class="st8 st2 st9">onment and input.</text>
<text transform="matrix(1 0 0 1 756 787.38)" class="st1 st2 st7">该能力可以使个体综合性的</text>
<text transform="matrix(1 0 0 1 714 811.38)" class="st1 st2 st7">从外界汲取知识和讯息，并且可以</text>
<text transform="matrix(1 0 0 1 728 835.38)" class="st1 st2 st7">能动性的消化、处理知识和讯息</text>
<text transform="matrix(1 0 0 1 656.48 867.38)" class="st8 st2 st9">The ability </text>
<text transform="matrix(1 0 0 1 719.36 867.38)" class="st8 st2 st9">t</text>
<text transform="matrix(1 0 0 1 723.73 867.38)" class="st8 st2 st9">o comp</text>
<text transform="matrix(1 0 0 1 767.46 867.38)" class="st8 st2 st9">r</text>
<text transform="matrix(1 0 0 1 771.87 867.38)" class="st8 st2 st9">ehensi</text>
<text transform="matrix(1 0 0 1 809.02 867.38)" class="st8 st2 st9">v</text>
<text transform="matrix(1 0 0 1 815.24 867.38)" class="st8 st2 st9">ely ta</text>
<text transform="matrix(1 0 0 1 846.25 867.38)" class="st8 st2 st9">k</text>
<text transform="matrix(1 0 0 1 852.53 867.38)" class="st8 st2 st9">e input f</text>
<text transform="matrix(1 0 0 1 900.71 867.38)" class="st8 st2 st9">r</text>
<text transform="matrix(1 0 0 1 905.13 867.38)" class="st8 st2 st9">om </text>
<text transform="matrix(1 0 0 1 708.26 887.38)" class="st8 st2 st9">outside </text>
<text transform="matrix(1 0 0 1 754.54 887.38)" class="st8 st2 st9">w</text>
<text transform="matrix(1 0 0 1 763.97 887.38)" class="st8 st2 st9">orld and critically p</text>
<text transform="matrix(1 0 0 1 873.92 887.38)" class="st8 st2 st9">r</text>
<text transform="matrix(1 0 0 1 878.33 887.38)" class="st8 st2 st9">ocess it.</text>
<text transform="matrix(1 0 0 1 756 469.64)" class="st1 st2 st7">使用非母语在不同情境下与</text>
<text transform="matrix(1 0 0 1 742 493.64)" class="st1 st2 st7">各类人群进行有效、高质量的</text>
<text transform="matrix(1 0 0 1 756 517.64)" class="st1 st2 st7">沟通以完成既定目标的能力</text>
<text transform="matrix(1 0 0 1 852.34 549.64)" class="st8 st2 st9"> </text>
<text transform="matrix(1 0 0 1 361 956.87)" class="st1 st2 st7">是指个体在自我管理、团队协作和管理</text>
<text transform="matrix(1 0 0 1 375 980.87)" class="st1 st2 st7">以及项目协调中表现出的综合素质</text>
<text transform="matrix(1 0 0 1 384.99 1012.87)" class="st8 st2 st9">The ability </text>
<text transform="matrix(1 0 0 1 447.87 1012.87)" class="st8 st2 st9">t</text>
<text transform="matrix(1 0 0 1 452.24 1012.87)" class="st8 st2 st9">o enhance leade</text>
<text transform="matrix(1 0 0 1 546.54 1012.87)" class="st8 st2 st9">r</text>
<text transform="matrix(1 0 0 1 551.21 1012.87)" class="st8 st2 st9">ship</text>
<text transform="matrix(1 0 0 1 396.04 1032.87)" class="st8 st2 st9">p</text>
<text transform="matrix(1 0 0 1 403.71 1032.87)" class="st8 st2 st9">ro</text>
<text transform="matrix(1 0 0 1 415.58 1032.87)" class="st8 st2 st9">acti</text>
<text transform="matrix(1 0 0 1 435.89 1032.87)" class="st8 st2 st9">v</text>
<text transform="matrix(1 0 0 1 442.11 1032.87)" class="st8 st2 st9">ely </text>
<text transform="matrix(1 0 0 1 462.02 1032.87)" class="st8 st2 st9">w</text>
<text transform="matrix(1 0 0 1 471.46 1032.87)" class="st8 st2 st9">ork with a </text>
<text transform="matrix(1 0 0 1 532.01 1032.87)" class="st8 st2 st9">t</text>
<text transform="matrix(1 0 0 1 536.38 1032.87)" class="st8 st2 st9">eam.</text>
<line class="st5" x1="480" y1="875.7" x2="480" y2="823.7"/>
<line class="st5" x1="480" y1="865" x2="480" y2="835.7"/>
<line class="st5" x1="480" y1="421.7" x2="480" y2="369.7"/>
<line class="st5" x1="480" y1="411" x2="480" y2="381.7"/>
<polyline class="st5" points="315.8,503.6 276.3,460.5 233.3,460.5 "/>
<line class="st6" x1="276.3" y1="460.5" x2="264.5" y2="460.5"/>
<line class="st6" x1="284.6" y1="469.5" x2="276.3" y2="460.5"/>
<polyline class="st5" points="645.1,503.6 684.6,460.5 727.6,460.5 "/>
<line class="st6" x1="684.6" y1="460.5" x2="696.4" y2="460.5"/>
<line class="st6" x1="676.3" y1="469.5" x2="684.6" y2="460.5"/>
<polyline class="st5" points="315.8,739 276.3,782.1 233.3,782.1 "/>
<line class="st6" x1="276.3" y1="782.1" x2="264.5" y2="782.1"/>
<line class="st6" x1="284.6" y1="773.1" x2="276.3" y2="782.1"/>
<polyline class="st5" points="645.1,739 684.6,782.1 727.6,782.1 "/>
<line class="st6" x1="684.6" y1="782.1" x2="696.4" y2="782.1"/>
<line class="st6" x1="676.3" y1="773.1" x2="684.6" y2="782.1"/>
<radialGradient id="SVGID_1_" cx="480.52" cy="533.63" r="126.78" gradientTransform="matrix(1 0 0 -1 0 1158)" gradientUnits="userSpaceOnUse">
	<stop  offset="0" style="stop-color:#333333;stop-opacity:0.84"/>
	<stop  offset="0.96" style="stop-color:#252525"/>
</radialGradient>
<circle class="st10" cx="480.5" cy="624.4" r="126.8"/>
<circle class="st11" cx="480.5" cy="624.4" r="65.1"/>
<linearGradient id="SVGID_2_" gradientUnits="userSpaceOnUse" x1="409.41" y1="533.63" x2="551.63" y2="533.63" gradientTransform="matrix(1 0 0 -1 0 1158)">
	<stop  offset="0" style="stop-color:#8A632A"/>
	<stop  offset="1" style="stop-color:#9E805A;stop-opacity:0.84"/>
</linearGradient>
<circle class="st12" cx="480.5" cy="624.4" r="71.1"/>
<linearGradient id="SVGID_3_" gradientUnits="userSpaceOnUse" x1="450.9582" y1="482.4318" x2="510.0818" y2="584.8282" gradientTransform="matrix(1 0 0 -1 0 1158)">
	<stop  offset="0" style="stop-color:#8A632A;stop-opacity:0"/>
	<stop  offset="1" style="stop-color:#D1C2B5;stop-opacity:0.84"/>
</linearGradient>
<circle class="st13" cx="480.5" cy="624.4" r="59.1"/>
<text transform="matrix(1 0 0 1 454.26 616.71)" class="st2 st14">4C </text>
<text transform="matrix(1 0 0 1 437.54 656.71)" class="st2 st14">ELITE</text>
<g class="st15">
	
		<ellipse transform="matrix(0.7071 -0.7071 0.7071 0.7071 -208.0495 590.0204)" class="st1" cx="608.2" cy="546.1" rx="44.8" ry="44.8"/>
</g>
<ellipse transform="matrix(0.7071 -0.7071 0.7071 0.7071 -208.0536 590.0304)" class="st1" cx="608.2" cy="546.2" rx="37.9" ry="37.9"/>
<linearGradient id="SVGID_4_" gradientUnits="userSpaceOnUse" x1="1318.3975" y1="209.0149" x2="1237.4374" y2="193.2449" gradientTransform="matrix(0.7071 -0.7071 -0.7071 -0.7071 -148.925 1613.1361)">
	<stop  offset="0" style="stop-color:#8A632A"/>
	<stop  offset="1" style="stop-color:#9E805A;stop-opacity:0.84"/>
</linearGradient>
<path class="st16" d="M581.4,573c14.8,14.8,38.8,14.8,53.6,0c14.8-14.8,14.8-38.8,0-53.6l0,0L581.4,573z"/>
<text transform="matrix(1 0 0 1 588.5 539.24)" class="st2 st3">交流</text>
<text transform="matrix(1 0 0 1 588.5 565.24)" class="st2 st3">能力</text>
<g class="st15">
	
		<ellipse transform="matrix(0.7071 -0.7071 0.7071 0.7071 -314.1761 633.9874)" class="st1" cx="608.2" cy="696.2" rx="44.8" ry="44.8"/>
</g>
<ellipse transform="matrix(0.7071 -0.7071 0.7071 0.7071 -314.1831 633.9904)" class="st1" cx="608.2" cy="696.2" rx="37.9" ry="37.9"/>
<linearGradient id="SVGID_5_" gradientUnits="userSpaceOnUse" x1="801.4996" y1="-434.9804" x2="720.5395" y2="-450.7505" gradientTransform="matrix(0.7071 0.7071 0.7071 -0.7071 361.8439 -150.3451)">
	<stop  offset="0" style="stop-color:#8A632A"/>
	<stop  offset="1" style="stop-color:#9E805A;stop-opacity:0.84"/>
</linearGradient>
<path class="st17" d="M581.4,669.5c-15.2,14.4-15.8,38.4-1.4,53.6s38.4,15.8,53.6,1.4c0.5-0.5,1-1,1.5-1.5L581.4,669.5z"/>
<text transform="matrix(1 0 0 1 588.5 689.33)" class="st2 st3">思辨</text>
<text transform="matrix(1 0 0 1 588.5 715.33)" class="st2 st3">能力</text>
<g class="st15">
	
		<ellipse transform="matrix(0.7071 -0.7071 0.7071 0.7071 -389.0132 453.3264)" class="st1" cx="352.7" cy="696.2" rx="44.8" ry="44.8"/>
</g>
<ellipse transform="matrix(0.7071 -0.7071 0.7071 0.7071 -389.0132 453.3264)" class="st1" cx="352.7" cy="696.2" rx="37.9" ry="37.9"/>
<linearGradient id="SVGID_6_" gradientUnits="userSpaceOnUse" x1="1158.2441" y1="-665.2473" x2="1077.2841" y2="-681.0173" gradientTransform="matrix(-0.7071 0.7071 0.7071 0.7071 1614.3251 360.4339)">
	<stop  offset="0" style="stop-color:#8A632A"/>
	<stop  offset="1" style="stop-color:#9E805A;stop-opacity:0.84"/>
</linearGradient>
<path class="st18" d="M379.5,669.5c-14.3-15.2-38.3-16-53.5-1.7c-15.2,14.3-16,38.3-1.7,53.5c0.5,0.6,1.1,1.1,1.6,1.7L379.5,669.5z"
	/>
<text transform="matrix(1 0 0 1 333 689.33)" class="st2 st3">自我</text>
<text transform="matrix(1 0 0 1 333 715.33)" class="st2 st3">认知</text>
<g class="st15">
	
		<ellipse transform="matrix(0.7071 -0.7071 0.7071 0.7071 -282.8866 409.3593)" class="st1" cx="352.7" cy="546.2" rx="44.8" ry="44.8"/>
</g>
<ellipse transform="matrix(0.7071 -0.7071 0.7071 0.7071 -282.8936 409.3622)" class="st1" cx="352.7" cy="546.2" rx="37.9" ry="37.9"/>
<linearGradient id="SVGID_7_" gradientUnits="userSpaceOnUse" x1="1462.8694" y1="-233.4475" x2="1381.9094" y2="-249.2175" gradientTransform="matrix(-0.7071 -0.7071 -0.7071 0.7071 1208.9661 1718.3251)">
	<stop  offset="0" style="stop-color:#8A632A"/>
	<stop  offset="1" style="stop-color:#9E805A;stop-opacity:0.84"/>
</linearGradient>
<path class="st19" d="M379.5,573c14.9-14.7,14.9-38.7,0.2-53.6c-14.7-14.9-38.7-14.9-53.6-0.2c-0.1,0.1-0.1,0.1-0.2,0.2L379.5,573z"
	/>
<text transform="matrix(1 0 0 1 333 539.24)" class="st2 st3">策略</text>
<text transform="matrix(1 0 0 1 333 565.24)" class="st2 st3">规划</text>
<g class="st15">
	
		<ellipse transform="matrix(0.7071 -0.7071 0.7071 0.7071 -196.4614 478.5457)" class="st1" cx="479.4" cy="476.4" rx="44.8" ry="44.8"/>
</g>
<circle class="st1" cx="479.4" cy="476.4" r="37.9"/>
<linearGradient id="SVGID_8_" gradientUnits="userSpaceOnUse" x1="1240.0785" y1="-52.6521" x2="1159.1184" y2="-68.4321" gradientTransform="matrix(6.123234e-17 -1 -1 -6.123234e-17 436.81 1687.96)">
	<stop  offset="0" style="stop-color:#8A632A"/>
	<stop  offset="1" style="stop-color:#9E805A;stop-opacity:0.84"/>
</linearGradient>
<path class="st20" d="M479.4,514.3c20.9,0,37.9-17,37.9-37.9s-17-37.9-37.9-37.9V514.3z"/>
<text transform="matrix(1 0 0 1 459.73 469.51)" class="st2 st3">学习</text>
<text transform="matrix(1 0 0 1 459.73 495.51)" class="st2 st3">能力</text>
<g class="st15">
	
		<ellipse transform="matrix(0.7213 -0.6926 0.6926 0.7213 -399.5001 546.6108)" class="st1" cx="479.4" cy="769.7" rx="44.8" ry="44.8"/>
</g>
<circle class="st1" cx="479.4" cy="769.8" r="37.9"/>
<linearGradient id="SVGID_9_" gradientUnits="userSpaceOnUse" x1="365.71" y1="-812.6599" x2="284.75" y2="-828.4398" gradientTransform="matrix(6.123234e-17 1 1 -6.123234e-17 1282.04 432.63)">
	<stop  offset="0" style="stop-color:#8A632A"/>
	<stop  offset="1" style="stop-color:#9E805A;stop-opacity:0.84"/>
</linearGradient>
<path class="st21" d="M479.4,731.9c-20.9,0-37.9,17-37.9,37.9s17,37.9,37.9,37.9V731.9z"/>
<text transform="matrix(1 0 0 1 459.73 762.84)" class="st2 st3">领导</text>
<text transform="matrix(1 0 0 1 459.73 788.84)" class="st2 st3">能力</text>
<path class="st22" d="M41.8,421.5c2.4,2.6,5.7,4.1,9.2,4.2h0.2c6.4,0,11.8-4.7,12.8-11H50.2L41.8,421.5z"/>
<path class="st23" d="M51,397.8c-8.2,0-14.9,6.7-14.9,14.9c0,8.2,6.7,14.9,14.9,14.9h0.3c8.2,0,14.9-6.7,14.9-14.9H51V397.8z
	 M40.5,420c-4-6-2.4-14,3.6-18c1.5-1,3.1-1.7,4.9-2v13.1L40.5,420z M64.1,414.7c-1,6.3-6.4,11-12.8,11H51c-3.5-0.1-6.9-1.6-9.3-4.2
	l8.4-6.9L64.1,414.7z"/>
<path class="st23" d="M54.8,394.5h-0.3v14.9h15.2C69.7,401.2,63.1,394.5,54.8,394.5z"/>
<path class="st23" d="M917.3,409.8h-16.7c-0.5,0-0.9-0.4-0.9-0.9c0-0.5,0.4-0.9,0.9-0.9h16.7c0.5,0,0.9,0.4,0.9,0.9
	C918.2,409.3,917.8,409.8,917.3,409.8C917.3,409.8,917.3,409.8,917.3,409.8L917.3,409.8z"/>
<path class="st23" d="M917.3,414.2h-16.7c-0.5,0-0.9-0.4-0.9-0.9c0-0.5,0.4-0.9,0.9-0.9h16.7c0.5,0,0.9,0.4,0.9,0.9
	C918.2,413.8,917.8,414.2,917.3,414.2C917.3,414.2,917.3,414.2,917.3,414.2L917.3,414.2z"/>
<path class="st23" d="M909.8,418.7h-9.2c-0.5,0-0.9-0.4-0.9-0.9c0-0.5,0.4-0.9,0.9-0.9h9.2c0.5,0,0.9,0.4,0.9,0.9
	C910.7,418.3,910.3,418.7,909.8,418.7z"/>
<path class="st23" d="M920.3,401.9h-22.8c-2,0-3.7,1.7-3.7,3.7v15.9c0,2,1.7,3.7,3.7,3.7h2.6v7c0,0.5,0.4,0.9,0.9,0.9
	c0.3,0,0.5-0.1,0.7-0.3l6.6-7.6l0,0l1.6-1.9h-2.4l-5.3,6l-0.3,0.3v-6.3l0,0l0,0h-4.4c-1,0-1.9-0.8-1.9-1.9v-15.8
	c0-1,0.8-1.9,1.9-1.9h22.8c1,0,1.9,0.8,1.9,1.9v15.9c0,1-0.8,1.9-1.9,1.9h-7.8l-1.6,1.9h9.4c2,0,3.7-1.7,3.7-3.7v-15.9
	C924,403.6,922.3,401.9,920.3,401.9z"/>
<path class="st23" d="M40.9,739.5c-0.5,0-1-0.4-1-0.9c0-0.4-0.1-0.8-0.1-1.2c0-3.3,1.5-6.4,4-8.5c0.4-0.4,1.1-0.3,1.4,0.1
	s0.3,1.1-0.1,1.4c-2.3,1.9-3.6,4.9-3.2,7.9c0.1,0.5-0.3,1-0.9,1.1C41,739.5,41,739.5,40.9,739.5L40.9,739.5z"/>
<path class="st23" d="M55,739.4h-6.5c-2.2,0-4.1,1.8-4.1,4.1v2.8c0.6,0.5,1.3,0.9,2,1.2v-3.9c0-1.1,0.9-2,2-2H55c1.1,0,2,0.9,2,2
	v2.9c0.7-0.5,1.4-1.1,2-1.8v-1C59,741.3,57.2,739.5,55,739.4z"/>
<path class="st23" d="M68,751.9l-4.9-6c4.7-6.8,3-16.1-3.8-20.7c-6.8-4.7-16.1-3-20.7,3.8s-3,16.1,3.8,20.7
	c4.2,2.9,9.5,3.5,14.2,1.5l4.9,6c1.4,1.7,4,2,5.7,0.6l0.2-0.2C69.1,756.2,69.4,753.6,68,751.9L68,751.9z M37.9,737.4
	c0-7.1,5.8-12.9,12.9-12.9s12.9,5.8,12.9,12.9s-5.8,12.9-12.9,12.9C43.7,750.3,37.9,744.5,37.9,737.4z M66.8,754.7
	c-0.1,0.5-0.3,1-0.7,1.3l-0.2,0.2c-0.3,0.2-0.6,0.4-1,0.4c-0.6,0.1-1.3-0.2-1.7-0.7l-4.6-5.7c1.2-0.7,2.3-1.6,3.3-2.6l4.6,5.7
	C66.7,753.7,66.9,754.2,66.8,754.7z"/>
<path class="st23" d="M51.7,728.2c-2.6,0-4.8,2.1-4.8,4.8s2.1,4.8,4.8,4.8c2.6,0,4.8-2.1,4.8-4.8S54.4,728.2,51.7,728.2
	C51.7,728.2,51.7,728.2,51.7,728.2z M51.7,735.7c-1.5,0-2.8-1.2-2.8-2.8s1.2-2.8,2.8-2.8s2.8,1.2,2.8,2.8l0,0
	C54.5,734.5,53.3,735.7,51.7,735.7z"/>
<path class="st23" d="M918.5,724.8c-6.3-4-14.2-4-20.5-0.1c-0.2,0.1-5.4,3-3.8,10.8c0,0.8-0.1,1.7-0.3,2.5l-3.6,4.3
	c-0.1,0.1-0.1,0.2-0.2,0.3c-0.2,0.6-0.2,1.3,0.1,1.9c0.4,0.5,1,0.9,1.6,0.9l1.7,0.3c0.4,0.8,0.6,1.6,0.7,2.4c0,0.9,0,1.9-0.2,2.8
	c-0.4,1.1-0.6,3.1,0.8,4.1c0.1,0.1,0.2,0.1,0.2,0.1l0,0c0.8,0.4,1.7,0.6,2.6,0.5c1.7,0,3.3-0.2,5-0.6c0.3,0.9,0.5,1.9,0.6,2.9h2
	c-0.4-3.4-1-4.4-1.4-4.8c-0.2-0.2-0.6-0.3-0.9-0.2c-1.7,0.4-3.5,0.7-5.3,0.7c-0.6,0.1-1.2,0-1.7-0.3l0,0c-0.4-0.4-0.2-1.5,0-1.8
	c0-0.1,0-0.1,0-0.2c0.1-0.7,0.2-1.5,0.3-2.2h2.1l0,0c0.6,0,1-0.4,1-1s-0.4-1-1-1h-2.2c-0.2-1-0.6-1.9-1-2.8
	c-0.1-0.3-0.4-0.5-0.7-0.5l-2.3-0.5H892h0l3.5-4.1l0.1-0.1c0.5-1.2,0.7-2.5,0.6-3.7c0-0.1,0-0.1,0-0.2c-1.4-6.4,2.6-8.6,2.8-8.7
	c5.6-3.5,12.7-3.5,18.4,0c8.4,6.2,3.2,15.6,2.8,16.3c-1.4,2.3-2.5,4.9-3.1,7.6c0,0.1,0,0.1,0,0.2c-0.1,2.5,0.1,5,0.5,7.5h2.1
	c-0.4-2.4-0.6-4.8-0.6-7.3c0.6-2.4,1.5-4.7,2.8-6.8v-0.1C921.9,743.7,928.5,732.2,918.5,724.8z"/>
<path class="st23" d="M914.8,744.5l1,0.4l0.7-1.9l-1-0.4c0-0.3,0-0.5,0-0.8l1-0.5l-0.8-1.9l-1,0.4c-0.2-0.2-0.4-0.4-0.6-0.5l0.4-1
	l-1.9-0.8l-0.4,1c-0.1,0-0.2,0-0.3,0c-0.2,0-0.3,0-0.5,0l-0.4-1l-1.9,0.8l0.5,1c-0.2,0.2-0.4,0.4-0.5,0.6l-1-0.4l-0.7,1.9l1,0.4
	c0,0.3,0,0.5,0,0.8l-1,0.4l0.8,1.9l1-0.5c0.2,0.2,0.4,0.4,0.6,0.5l-0.4,1l1.9,0.8l0.4-1c0.1,0,0.2,0,0.3,0c0.2,0,0.3,0,0.5,0l0.5,1
	l1.9-0.8l-0.4-1C914.5,744.8,914.6,744.6,914.8,744.5z M913.4,742.8c-0.2,0.6-0.8,1-1.5,1c-0.6,0-1.2-0.4-1.5-1
	c-0.3-0.8,0-1.8,0.9-2.1c0.2-0.1,0.4-0.1,0.6-0.1c0.9,0,1.6,0.7,1.6,1.6C913.6,742.4,913.5,742.6,913.4,742.8L913.4,742.8z"/>
<path class="st23" d="M913.6,733.1v-2h-1.4c-0.1-0.6-0.3-1.1-0.7-1.5l1-1l-1.4-1.4l-1,1c-0.5-0.3-1-0.5-1.5-0.7v-1.4h-2v1.4
	c-0.6,0.1-1.1,0.3-1.5,0.7l-1-1l-1.4,1.4l1,1c-0.3,0.5-0.5,1-0.7,1.5h-1.4v2h1.4c0.1,0.6,0.3,1.1,0.7,1.5l-1,1l1.4,1.4l1-1
	c0.5,0.3,1,0.5,1.5,0.7v1.4h2v-1.4c0.6-0.1,1.1-0.3,1.5-0.7l1,1l1.4-1.4l-1-1c0.3-0.5,0.5-1,0.7-1.5L913.6,733.1z M907.6,734.8
	c-1.5,0-2.7-1.2-2.7-2.7c0-1.5,1.2-2.7,2.7-2.7c1.5,0,2.7,1.2,2.7,2.7c0,0,0,0,0,0C910.4,733.6,909.1,734.8,907.6,734.8
	C907.6,734.8,907.6,734.8,907.6,734.8L907.6,734.8z"/>
<path class="st23" d="M489.8,251.9c1,1.4,0.6,3.4-0.8,4.3c-1.2,0.8-2.9,0.7-4-0.4l-1.4,1.1c1.9,2,5,2.1,6.9,0.2
	c1.8-1.7,2-4.4,0.6-6.4L489.8,251.9z"/>
<circle class="st23" cx="468" cy="254.5" r="1.7"/>
<path class="st23" d="M493.5,245.9c-0.1-0.3-0.4-0.6-0.7-0.7l-8.3-1.7l0,0l-4.5-5.3c-0.3-0.4-0.9-0.4-1.3-0.1l-5.4,4.7
	c-0.4,0.3-0.4,0.9-0.1,1.3l2,2.4l-5.5,5c-0.1,0.1-0.1,0.1-0.2,0.2c0.5,0.3,0.9,0.7,1.2,1.2l0.1-0.1l5.4-5l1.2,1.5c0,0.1,0,0.2,0,0.2
	l0.5,8c0,0.3,0.2,0.6,0.5,0.8c0.1,0,0.2,0.1,0.4,0.1c0.2,0,0.4-0.1,0.6-0.2l13.7-11.3C493.5,246.6,493.6,246.2,493.5,245.9z
	 M478.8,247.9l-3.7-4.3l4.1-3.5l3.7,4.3L478.8,247.9z M479.8,255.6l-0.4-5.8l5.2-4.4l6,1.2L479.8,255.6z"/>
<path class="st23" d="M479.7,264.7c-1.1,0-2.1,0.2-3.2,0.5l-6.1-8.5c-0.4,0.5-0.9,0.8-1.5,1l5.9,8.2c-2.1,1.1-3.8,2.9-4.6,5.2h19
	C487.7,267.1,483.9,264.6,479.7,264.7z M473.3,269.2c3.3-3.5,8.8-3.7,12.3-0.4c0.2,0.1,0.3,0.3,0.4,0.4H473.3z"/>
<path class="st23" d="M493.6,905.4h-3.4v2.1h3.4c1.2,0,2.1,0.9,2.1,2.1v5.8c0,1.2-0.9,2.1-2.1,2.1h-0.9v8.9h2.1v-7
	c1.8-0.5,3-2.1,3-4v-5.8C497.7,907.3,495.9,905.4,493.6,905.4C493.6,905.4,493.6,905.4,493.6,905.4z"/>
<path class="st23" d="M468.4,907.5h3.3v-2.1h-3.3c-2.3,0-4.2,1.9-4.2,4.2v5.8c0,1.9,1.2,3.5,3,4v7h2.1v-8.9h-0.9
	c-1.2,0-2.1-0.9-2.1-2.1v-5.8C466.3,908.3,467.2,907.4,468.4,907.5z"/>
<path class="st23" d="M488.2,905.4c0-0.4-0.1-0.9-0.3-1.3c-0.3-0.8-1-1.5-1.7-2c-0.6-0.4-1.4-0.6-2.1-0.6h-6.1
	c-0.8,0-1.5,0.2-2.1,0.6c-0.8,0.5-1.4,1.2-1.7,2c-0.2,0.4-0.3,0.8-0.3,1.3c0,0.1,0,0.2,0,0.2v7.9c0,0.5,0.1,1,0.3,1.5
	c0.3,0.8,0.9,1.5,1.6,2l0.1,0.1c0.3,0.2,0.6,0.3,1,0.4v8.8h2.1v-10.7h-0.9c-1.2,0-2.1-0.9-2.1-2.1v-8c0-1.1,1-2.1,2.1-2.1h6.1
	c1.2,0,2.1,0.9,2.1,2.1l0,0v7.9c0,1.2-0.9,2.1-2.1,2.1h-0.9v10.7h2.1v-8.8c0.4-0.1,0.7-0.2,1-0.4l0.1-0.1c0.7-0.5,1.3-1.2,1.6-2
	c0.2-0.5,0.3-1,0.3-1.5v-7.9C488.2,905.5,488.2,905.5,488.2,905.4z"/>
<path class="st23" d="M481,899.7c2.7,0,4.8-2.2,4.8-4.8c0-2.7-2.2-4.8-4.8-4.8c-2.7,0-4.8,2.2-4.8,4.8S478.3,899.7,481,899.7
	C481,899.7,481,899.7,481,899.7z M481,892.1c1.5,0,2.8,1.2,2.8,2.8c0,1.5-1.2,2.8-2.8,2.8s-2.8-1.2-2.8-2.8
	C478.2,893.3,479.5,892.1,481,892.1z"/>
<path class="st23" d="M492.1,903.6c2.7,0,4.8-2.2,4.8-4.8c0-2.7-2.2-4.8-4.8-4.8c-2.7,0-4.8,2.2-4.8,4.8S489.4,903.6,492.1,903.6
	C492.1,903.6,492.1,903.6,492.1,903.6z M492.1,896c1.5,0,2.8,1.2,2.8,2.8c0,1.5-1.2,2.8-2.8,2.8s-2.8-1.2-2.8-2.8
	C489.3,897.3,490.6,896,492.1,896L492.1,896z"/>
<path class="st23" d="M469.9,903.6c2.7,0,4.8-2.2,4.8-4.8c0-2.7-2.2-4.8-4.8-4.8c-2.7,0-4.8,2.2-4.8,4.8S467.2,903.6,469.9,903.6
	C469.9,903.6,469.9,903.6,469.9,903.6z M469.9,896c1.5,0,2.8,1.2,2.8,2.8c0,1.5-1.2,2.8-2.8,2.8s-2.8-1.2-2.8-2.8
	C467.1,897.3,468.3,896,469.9,896L469.9,896z"/>
<text transform="matrix(1 0 0 1 692.4336 551)"><tspan x="0" y="0" class="st8 st2 st9">The ability to communicate efficiently in </tspan><tspan x="-18.7" y="18" class="st8 st2 st9">English under all environments with people </tspan><tspan x="27.5" y="36" class="st8 st2 st9">from different cultural background. </tspan></text>
</svg>
