<svg xmlns="http://www.w3.org/2000/svg" viewBox="0 0 281.3 47.16"><defs><style>.cls-1{fill:#d59b68;}</style></defs><title>资源 2</title><g id="图层_2" data-name="图层 2"><g id="图层_1-2" data-name="图层 1"><path class="cls-1" d="M3.13,16.23l-.83-1.72a16.71,16.71,0,0,1,1.51-1.44,3.93,3.93,0,0,0,.41-.34V7.56H2.45V5.84H6v6.74a4.08,4.08,0,0,0,3.78,1.93q6.67,0,9.35-.07-.34.89-.55,1.58H12.76q-2.2,0-3.51-.07A4.85,4.85,0,0,1,5.2,14.1a16.53,16.53,0,0,0-1.93,2ZM5.33,4.4Q4.85,3.64,3.62,2L3,1.17,4.51.28q.27.34.83,1.1,1.17,1.38,1.58,2Zm9.21,9.35a10.2,10.2,0,0,0-.34-1.37,12.83,12.83,0,0,0,1.31.07q1,.07.89-1v-.27H13.66v2.34H12V11.14H9.32v2.54H7.6V4.47h3.78A22.33,22.33,0,0,0,9.25,3.3L8.77,3l1-.83H7.4V.83H17.92V2.34L14.07,4.47h4.06v7.15q.07,2.06-1.93,2.06A14.53,14.53,0,0,1,14.55,13.75Zm-5.23-8V7.22H12V5.78Zm0,2.68V9.83H12V8.46ZM15.44,2.2H10.08a24.46,24.46,0,0,1,2.61,1.51Zm1,3.58H13.66V7.22h2.75ZM13.66,8.46V9.83h2.75V8.46Z"/><path class="cls-1" d="M40.47,16.3v-14h5A17.85,17.85,0,0,0,46,0l2.13.21q-.14.41-.48,1.24a4.26,4.26,0,0,1-.27.89h7.77V13.82q.14,2.34-2.48,2.34l-2.61.07a4.59,4.59,0,0,1-.14-.55,6.38,6.38,0,0,0-.27-1.17H52q1.37,0,1.31-1V4.06h-11V16.3Zm3.78-3.58V6.19h7.08v6.53Zm1.79-5v3.3h3.58V7.77Z"/><path class="cls-1" d="M76.71,2.2V1H81V0h1.72V1h4.54V0h1.72V1h4.26V2.2H88.95V3H87.23V2.2H82.69V3H81V2.2Zm.55,2.48V3.58h6.81V2.82h1.79v.76h6.81v1.1H85.86V5.5h5.91v1H85.86v.89H93v1H76.85v-1h7.22V6.53H78.15v-1h5.91V4.68ZM78.7,16.43V9.35H91.22v5.16q.07,1.86-2.27,1.86H86.2a4.67,4.67,0,0,0-.41-1.31H87q.82.07,1.31.07,1.24,0,1.17-.83v-.14H80.49v2.27Zm1.79-6.05v.89h8.94v-.89Zm0,1.86v1h8.94v-1Z"/><path class="cls-1" d="M129.45,16.37q-5.85-.89-7.36-3.58-1.31,2.41-7.29,3.78a8.21,8.21,0,0,0-.55-1,6.15,6.15,0,0,1-.48-.76q5.78-.76,7-3.16h-6.88V10h1.93V5.78h5.36V4.26h1.86V5.78h5.29V10h1.93v1.58h-6.95q1.51,2.61,7,2.89Q129.86,15.47,129.45,16.37ZM114,3.37V1.79h3.92V0h1.86V1.79h4.68V0h1.79V1.79h4.06V3.37h-4.06V4.74h-1.79V3.37h-4.68V4.74H117.9V3.37ZM121.06,10q.07-1,.07-2.75h-3.51V10Zm2-2.75q0,.55-.07,1.51V10h3.51V7.29Z"/><path class="cls-1" d="M151.73,3.64V2.2h2.34V.14h1.65V2.2h1.93V3.64h-1.93V5.23h.76a25.59,25.59,0,0,0,2.41-3.58l1.31.76a18.94,18.94,0,0,1-1.93,2.82h1V6.67h-2.13L155.79,8h2.75V9.35l-2.06,1.86v.14c.32,0,.76-.09,1.31-.14l1.58-.21a11.74,11.74,0,0,0,.07,1.51l-3,.34V14.3a1.83,1.83,0,0,1-1.86,2h-2.13l-.28-1.51q.27,0,.89.07h.83q1-.07.89-.76v-1l-3.58.48L151.11,12l3.71-.48v-.69l1.79-1.51h-2.48a24.31,24.31,0,0,1-2.54,1.79,4.87,4.87,0,0,0-.69-1,.76.76,0,0,0-.14-.28,5.57,5.57,0,0,1,.83-.48,6.37,6.37,0,0,1,.76-.48V8h1.24q.34-.27,1-.89a6.25,6.25,0,0,0,.48-.41H151V5.23h3V3.64Zm8,5.64a3.1,3.1,0,0,0-.27-.41,6.67,6.67,0,0,0-.69-1.24A21.68,21.68,0,0,0,161.49.07l1.79.21c-.09.41-.23,1-.41,1.72-.14.46-.23.78-.27,1h4.81V4.68H166.1a15.08,15.08,0,0,1-1.93,7.15,11.12,11.12,0,0,0,3.44,2.82,3.17,3.17,0,0,1-.27.41,14.63,14.63,0,0,0-.76,1.31,17.21,17.21,0,0,1-3.44-3,22.91,22.91,0,0,1-3.85,3.23,5.79,5.79,0,0,1-.55-.69,8,8,0,0,0-.69-.83,13.8,13.8,0,0,0,4.06-3.23A13.72,13.72,0,0,1,160.6,7.7Q160.19,8.46,159.71,9.28Zm2.06-4a15.94,15.94,0,0,0,1.38,5,14.79,14.79,0,0,0,1.38-5.57H162A5,5,0,0,1,161.77,5.29Z"/><path class="cls-1" d="M188.17,3.09V1.65h7.43a8.68,8.68,0,0,0-.28-.83l-.21-.62L197.25,0l.48,1.65h6.81V3.09h-4.81q2.48,1.58,4.33,3l-1.24,1.17-1.44-1q-4.26,0-9.21.14a11.33,11.33,0,0,0-2.34.21l-.55-1.44a8.32,8.32,0,0,0,1.79-.82q.89-.55,1.72-1.17Zm1.93,13.34V7.36h12.58v6.88q.07,2.06-2.27,2.06h-2.75a6.42,6.42,0,0,1-.34-1.17,1.14,1.14,0,0,1-.07-.34h2.48q1.17.07,1.1-.83v-.34H192v2.82ZM192,8.66V10h8.87V8.66Zm0,2.48v1.31h8.87V11.14ZM192.64,5q1.1-.07,3.44-.07t3.51-.07a5.36,5.36,0,0,0-1-.69,10.64,10.64,0,0,0-1-.69l.48-.34h-2.82A25.67,25.67,0,0,1,192.64,5Z"/><path class="cls-1" d="M241.26,15.88h-4.74q-1.72,0-3.16-.07a6.67,6.67,0,0,1-4.81-2q-.28-.34-.62,0a26.47,26.47,0,0,0-2,2.13q1-1.24-.14.14l-.76-2a15.65,15.65,0,0,1,2-1.93,1.93,1.93,0,0,1,1.31-.69,1.55,1.55,0,0,1,.48.07,48.27,48.27,0,0,0,8.94-6.67H226.34V3.09h6.53l-.21-.41Q232,1.1,231.7.41l2.13-.34a6.94,6.94,0,0,1,.34,1A18.89,18.89,0,0,1,235,3.09h5.36V5a50.72,50.72,0,0,1-10.18,7.77,4.56,4.56,0,0,0,3.58,1.38q2.54.07,8-.07A13.18,13.18,0,0,0,241.26,15.88Z"/><path class="cls-1" d="M263.33,16.43V4.06h1.93V16.43Zm2.48-12.86q-1-1.44-2.06-2.68L265.32,0a30.06,30.06,0,0,1,2.2,2.48Zm6.46,12.72a5.81,5.81,0,0,0-.41-1.86q1.58.07,2.75.07,1.51,0,1.44-1.31V3h-7.5V1.17H278V13.68q.14,2.54-2.54,2.54Z"/><path class="cls-1" d="M10.47,33,1.36,44.22H0L9.12,33Z"/><path class="cls-1" d="M23.53,33.19h1.93q1.39,2,2.89,4.33a3.47,3.47,0,0,1,.27.43c.14.21.23.36.27.43q.27-.43.53-.8t2.83-4.39h1.93l-4.55,6.47v4.49H28V39.66Z"/><path class="cls-1" d="M38.83,36.08q3.74.16,3.9,4.17-.11,4-4,4.06-3.74-.21-4-4Q34.93,36.24,38.83,36.08Zm-.05,7.06q2.25-.05,2.3-2.89-.11-2.73-2.3-2.89-2.3.05-2.35,2.89T38.78,43.13Z"/><path class="cls-1" d="M51.4,44.1h-1.6V42.76a2.93,2.93,0,0,1-2.62,1.55q-2.94,0-2.94-3.1v-5h1.6V41q0,2.09,1.87,2.09a2.16,2.16,0,0,0,2.09-2.3v-4.6h1.6Z"/><path class="cls-1" d="M54.87,40V44.1h-1.6V36.24h1.6v1.5A2.23,2.23,0,0,1,57,36a2.91,2.91,0,0,1,1.44.43l-.59,1.44a1.65,1.65,0,0,0-1.12-.37Q54.93,37.63,54.87,40Z"/><path class="cls-1" d="M73.17,38.11v4.06Q72,44.26,68.35,44.31,63.16,44,62.9,38.7q.27-5.4,5.24-5.67,3.8.05,5,2.94l-1.6.59a3.24,3.24,0,0,0-3.37-2.09q-3.21.32-3.48,4.22.21,4,3.69,4.28a3.94,3.94,0,0,0,3.26-1.34V39.5H68V38.11Z"/><path class="cls-1" d="M82.74,44.1H81.19a2.8,2.8,0,0,1-.43-1.34,3.86,3.86,0,0,1-3.42,1.55q-2.46-.11-2.57-2.19t2.94-2.51q2.57-.37,3-.86.11-1.66-1.93-1.55-1.87,0-2.19,1.44L75,38.38Q75.63,36,78.78,36q3.69-.11,3.53,3.16v3.26A3.09,3.09,0,0,0,82.74,44.1Zm-1.93-3.32v-1a4.36,4.36,0,0,1-2.35.8q-2.14.27-2.09,1.5T78,43.19Q80.6,43,80.81,40.78Z"/><path class="cls-1" d="M86.27,33.29v2.94H88v1.23H86.27V42q-.05,1.23,1,1.18A1.65,1.65,0,0,0,88,43l.27.91a2.44,2.44,0,0,1-1.55.43q-2.09.05-2-2.08V37.47H83.38V36.24h1.28V33.72Z"/><path class="cls-1" d="M95.2,41.69l1.71.27q-.86,2.35-3.9,2.35-4-.16-4.12-4,.16-4.12,4-4.28,4,.05,4,4.28v.43H90.55A2.34,2.34,0,0,0,93,43.19,2.09,2.09,0,0,0,95.2,41.69ZM90.55,39.6h4.71A2.21,2.21,0,0,0,93,37.2,2.29,2.29,0,0,0,90.55,39.6Z"/><path class="cls-1" d="M109.75,36.24,107,44.1H105.2q-1.39-5.46-1.39-5.67a2.63,2.63,0,0,1-.16-.8h-.05a3.39,3.39,0,0,1-.05.43c0,.21-.05.34-.05.37s-.57,2.07-1.6,5.67h-1.71L97.5,36.24h1.66q1.71,5.78,1.76,6a2.19,2.19,0,0,0,.16.7,4,4,0,0,0,.16-.7l1.55-6h1.6l1.5,5.94a1.13,1.13,0,0,1,.11.43,1.54,1.54,0,0,1,.11.32,4.15,4.15,0,0,0,.21-.75q.11-.32,1.77-5.94Z"/><path class="cls-1" d="M118.36,44.1h-1.55a2.8,2.8,0,0,1-.43-1.34A3.86,3.86,0,0,1,113,44.31q-2.46-.11-2.57-2.19t2.94-2.51q2.57-.37,3-.86.11-1.66-1.93-1.55-1.87,0-2.19,1.44l-1.55-.27Q111.24,36,114.4,36q3.69-.11,3.53,3.16v3.26A3.09,3.09,0,0,0,118.36,44.1Zm-1.93-3.32v-1a4.36,4.36,0,0,1-2.35.8q-2.14.27-2.09,1.5t1.66,1.12Q116.22,43,116.43,40.78Z"/><path class="cls-1" d="M122.31,43.83,119,36.24h1.76l2,5.29.32,1h.05l.32-1,1.82-5.29H127q-2.84,6.9-3.42,8.24-1,2.89-2.67,2.67a2.87,2.87,0,0,1-1.44-.27l-.11-1.18a2.74,2.74,0,0,0,1,.21,1.39,1.39,0,0,0,1.44-1Q121.94,44.74,122.31,43.83Z"/><path class="cls-1" d="M134,33.29v2.94h1.77v1.23H134V42q-.05,1.23,1,1.18a1.65,1.65,0,0,0,.75-.16l.27.91a2.44,2.44,0,0,1-1.55.43q-2.09.05-2-2.08V37.47h-1.28V36.24h1.28V33.72Z"/><path class="cls-1" d="M140.66,36.08q3.74.16,3.9,4.17-.11,4-4,4.06-3.74-.21-4-4Q136.75,36.24,140.66,36.08Zm-.05,7.06q2.25-.05,2.3-2.89-.11-2.73-2.3-2.89-2.3.05-2.35,2.89T140.61,43.13Z"/><path class="cls-1" d="M158.47,44.15h-8.4v-11h8.18v1.39h-6.47v3.26h6.1v1.39h-6.1v3.58h6.69Z"/><path class="cls-1" d="M160.29,44.1V32.81h1.66V44.1Z"/><path class="cls-1" d="M163.87,34.74V33.08h1.66v1.66Zm0,9.36V36.24h1.66V44.1Z"/><path class="cls-1" d="M169.54,33.29v2.94h1.77v1.23h-1.77V42q-.05,1.23,1,1.18a1.65,1.65,0,0,0,.75-.16l.27.91a2.44,2.44,0,0,1-1.55.43q-2.09.05-2-2.08V37.47h-1.28V36.24h1.28V33.72Z"/><path class="cls-1" d="M178.47,41.69l1.71.27q-.86,2.35-3.9,2.35-4-.16-4.12-4,.16-4.12,4-4.28,4,.05,4,4.28v.43h-6.31a2.34,2.34,0,0,0,2.46,2.46A2.09,2.09,0,0,0,178.47,41.69Zm-4.65-2.09h4.71a2.21,2.21,0,0,0-2.3-2.41A2.29,2.29,0,0,0,173.82,39.6Z"/><path class="cls-1" d="M194.09,44.15h-8.4v-11h8.18v1.39H187.4v3.26h6.1v1.39h-6.1v3.58h6.69Z"/><path class="cls-1" d="M201.36,32.81H203V44.1h-1.66V42.87a2.68,2.68,0,0,1-2.67,1.44q-3.16-.21-3.26-4,.05-4.28,3.48-4.33a2.62,2.62,0,0,1,2.46,1.55Zm.05,7.59v-.8a2.32,2.32,0,0,0-2.14-2.3q-2.14.11-2.19,2.94t2.19,2.89Q201.36,43.08,201.41,40.41Z"/><path class="cls-1" d="M212.16,44.1h-1.6V42.76a2.93,2.93,0,0,1-2.62,1.55q-2.94,0-2.94-3.1v-5h1.6V41q0,2.09,1.87,2.09a2.16,2.16,0,0,0,2.09-2.3v-4.6h1.6Z"/><path class="cls-1" d="M221.47,38.54l-1.66.32a2.16,2.16,0,0,0-2-1.5q-2.3.11-2.35,2.89t2.35,2.83a1.92,1.92,0,0,0,2-1.82l1.71.21a3.38,3.38,0,0,1-3.8,2.83q-3.9-.11-4-4.06.11-4.12,4-4.22A3.74,3.74,0,0,1,221.47,38.54Z"/><path class="cls-1" d="M230.4,44.1h-1.55a2.8,2.8,0,0,1-.43-1.34A3.86,3.86,0,0,1,225,44.31q-2.46-.11-2.57-2.19t2.94-2.51q2.57-.37,3-.86.11-1.66-1.93-1.55-1.87,0-2.19,1.44l-1.55-.27q.59-2.41,3.74-2.35,3.69-.11,3.53,3.16v3.26A3.09,3.09,0,0,0,230.4,44.1Zm-1.93-3.32v-1a4.36,4.36,0,0,1-2.35.8q-2.14.27-2.09,1.5t1.66,1.12Q228.26,43,228.48,40.78Z"/><path class="cls-1" d="M233.93,33.29v2.94h1.77v1.23h-1.77V42q-.05,1.23,1,1.18a1.65,1.65,0,0,0,.75-.16l.27.91a2.44,2.44,0,0,1-1.55.43q-2.09.05-2-2.08V37.47H231V36.24h1.28V33.72Z"/><path class="cls-1" d="M237,34.74V33.08h1.66v1.66Zm0,9.36V36.24h1.66V44.1Z"/><path class="cls-1" d="M244.2,36.08q3.74.16,3.9,4.17-.11,4-4,4.06-3.74-.21-4-4Q240.3,36.24,244.2,36.08Zm-.05,7.06q2.25-.05,2.3-2.89-.11-2.73-2.3-2.89-2.3.05-2.35,2.89T244.15,43.13Z"/><path class="cls-1" d="M256.82,44.15h-1.6V39.44q0-2.14-1.82-2.09a2.17,2.17,0,0,0-2.14,2.19v4.6h-1.6V36.24h1.6v1.39A3.32,3.32,0,0,1,254,36q2.89-.05,2.83,3.21Z"/><path class="cls-1" d="M281.3,33l-9.12,11.25h-1.36L279.95,33Z"/></g></g></svg>