<svg xmlns="http://www.w3.org/2000/svg" viewBox="0 0 33.71 29.2"><defs><style>.cls-1{fill:none;stroke:#cf9866;stroke-linecap:round;stroke-linejoin:round;stroke-width:2px;}</style></defs><title>资源 4an</title><g id="图层_2" data-name="图层 2"><g id="图层_1-2" data-name="图层 1"><g id="_编组_" data-name="&lt;编组&gt;"><path id="_路径_" data-name="&lt;路径&gt;" class="cls-1" d="M32.71,1H10.8S6.9,1,6.9,5.49,10.8,10,10.8,10H32.71"/><path id="_路径_2" data-name="&lt;路径&gt;" class="cls-1" d="M29.56,1a8.69,8.69,0,0,0-1.44,4.49,11.65,11.65,0,0,0,1.19,4.74"/><path id="_路径_3" data-name="&lt;路径&gt;" class="cls-1" d="M32.71,19H10.8s-3.9,0-3.9,4.49,3.9,4.49,3.9,4.49H32.71"/><path id="_路径_4" data-name="&lt;路径&gt;" class="cls-1" d="M29.56,19a8.69,8.69,0,0,0-1.44,4.49,11.65,11.65,0,0,0,1.19,4.74"/><path id="_路径_5" data-name="&lt;路径&gt;" class="cls-1" d="M1,19.2H22.91s3.9,0,3.9-4.49-3.9-4.49-3.9-4.49H1"/><path id="_路径_6" data-name="&lt;路径&gt;" class="cls-1" d="M4.15,19.2a8.69,8.69,0,0,0,1.44-4.49A11.65,11.65,0,0,0,4.4,10"/></g></g></g></svg>