<svg xmlns="http://www.w3.org/2000/svg" viewBox="0 0 22.09 29.17"><defs><style>.cls-1{fill:none;stroke:#cf9866;stroke-linecap:round;stroke-linejoin:round;stroke-width:2px;}</style></defs><title>资源 7an</title><g id="图层_2" data-name="图层 2"><g id="图层_1-2" data-name="图层 1"><g id="_编组_" data-name="&lt;编组&gt;"><path id="_路径_" data-name="&lt;路径&gt;" class="cls-1" d="M17,12.41a5.92,5.92,0,0,1-6,5.85,5.92,5.92,0,0,1-6-5.85V6.85A5.92,5.92,0,0,1,11,1a5.92,5.92,0,0,1,6,5.85Z"/><path id="_路径_2" data-name="&lt;路径&gt;" class="cls-1" d="M21.09,9.66v3.86a9.85,9.85,0,0,1-10,9.65A9.85,9.85,0,0,1,1,13.52V9.66"/><line id="_路径_3" data-name="&lt;路径&gt;" class="cls-1" x1="11.02" y1="23.85" x2="11.02" y2="27.29"/><line id="_路径_4" data-name="&lt;路径&gt;" class="cls-1" x1="5.03" y1="28.17" x2="17" y2="28.17"/><line id="_路径_5" data-name="&lt;路径&gt;" class="cls-1" x1="5.03" y1="9.21" x2="17" y2="9.21"/></g></g></g></svg>