<svg xmlns="http://www.w3.org/2000/svg" viewBox="0 0 37.67 49.05"><defs><style>.cls-1{fill:#fff;}</style></defs><title>Asset 1</title><g id="Layer_2" data-name="Layer 2"><g id="图层_1" data-name="图层 1"><g id="_Group_" data-name="&lt;Group&gt;"><path id="_Compound_Path_" data-name="&lt;Compound Path&gt;" class="cls-1" d="M37.67,0H0V28.15a20.7,20.7,0,0,0,2.34,8.61A21.75,21.75,0,0,0,6,41.87l.09.1A26.46,26.46,0,0,0,18.67,49l.16,0L19,49a26.29,26.29,0,0,0,12.54-7,.59.59,0,0,0,.21-.23,22.06,22.06,0,0,0,5.92-13.64ZM36.48,28.15a20.64,20.64,0,0,1-4.66,11.76V36.37a.59.59,0,0,0-1.19,0v4.88a22,22,0,0,1-3.67,3l-3.52-3.43v-2.8a1.08,1.08,0,0,1,.32-.61,1.23,1.23,0,0,1,1.67,0l0,0a.9.9,0,0,1,.24.87.78.78,0,0,1-.89.58.6.6,0,0,0-.74.4.59.59,0,0,0,.4.73,1.94,1.94,0,0,0,2.36-1.35,2.06,2.06,0,0,0-.54-2.08l0,0a2.42,2.42,0,0,0-3.33,0,2.25,2.25,0,0,0-.68,1.33.57.57,0,0,0,0,.08V41.1h0a.59.59,0,0,0,0,.12h0a.59.59,0,0,0,0,.1l0,.05,0,.06.07.08h0l3.5,3.4a27.25,27.25,0,0,1-5.13,2.32V23l4.49,4.36-2.9,2.8a.59.59,0,0,0-.18.42v4.24a.59.59,0,0,0,1.19,0v-4l2.74-2.65,4.45,4.33a1.05,1.05,0,0,1,.22.64,1.16,1.16,0,0,1-1.18,1.11h0a1,1,0,0,1-.84-.46.86.86,0,0,1-.08-.65.55.55,0,0,1,.27-.34.59.59,0,0,0,.25-.8.6.6,0,0,0-.8-.25,1.73,1.73,0,0,0-.86,1,2,2,0,0,0,.17,1.56,2.17,2.17,0,0,0,1.88,1.08h.05A2.33,2.33,0,0,0,32,33.2a2.26,2.26,0,0,0-.5-1.41l0-.05L27,27.4l4.62-4.46,0-.05a2.25,2.25,0,0,0,.5-1.41,2.33,2.33,0,0,0-2.37-2.29h0a2.18,2.18,0,0,0-1.88,1.08,2,2,0,0,0-.17,1.57,1.73,1.73,0,0,0,.86,1,.6.6,0,0,0,.8-.25.59.59,0,0,0-.25-.8.55.55,0,0,1-.27-.33.86.86,0,0,1,.08-.66,1,1,0,0,1,.84-.46h0A1.16,1.16,0,0,1,31,21.48a1.06,1.06,0,0,1-.22.64l-4.61,4.45-5.28-5.14-.06,0V18.25a.56.56,0,0,0,.12-.08l2-2,.05.06,2.4,2.32a1.06,1.06,0,0,1,.22.65,1.16,1.16,0,0,1-1.18,1.11h0a1,1,0,0,1-.83-.47.86.86,0,0,1-.08-.65.55.55,0,0,1,.27-.33.59.59,0,0,0,.25-.8.6.6,0,0,0-.8-.25,1.73,1.73,0,0,0-.86,1,2,2,0,0,0,.17,1.56,2.17,2.17,0,0,0,1.88,1.09h.05a2.33,2.33,0,0,0,2.37-2.29,2.23,2.23,0,0,0-.5-1.41l0-.05-2.43-2.35,0,0,1.87-1.8a2.23,2.23,0,0,0,.5-1.41,2.34,2.34,0,0,0-2.37-2.29h0A2.17,2.17,0,0,0,21.85,11a2,2,0,0,0-.17,1.56,1.73,1.73,0,0,0,.86,1,.6.6,0,0,0,.8-.25.59.59,0,0,0-.25-.8.55.55,0,0,1-.27-.33.86.86,0,0,1,.08-.66,1,1,0,0,1,.84-.46h0A1.16,1.16,0,0,1,25,12.18a1.06,1.06,0,0,1-.22.64l-4,3.82V6.2a8.91,8.91,0,0,1,7.07,8.66.59.59,0,0,0,1.19,0A10.1,10.1,0,0,0,20.79,5V3.49a11.46,11.46,0,0,1,9.83,10.83c0,.14,0,3.41,0,3.85a.59.59,0,0,0,1.19,0s0-3.77,0-3.89a12.65,12.65,0,0,0-11-12h0l-.44-.06H20.3a.7.7,0,0,0-.52.23.59.59,0,0,0-.18.42V47.63l-.77.22-.77-.22V2.89a.58.58,0,0,0-.18-.42.7.7,0,0,0-.52-.23h-.09l-.44.06h0a12.65,12.65,0,0,0-11,12c0,.12,0,3.85,0,3.89a.6.6,0,0,0,1.19,0c0-.44,0-3.71,0-3.85A11.46,11.46,0,0,1,16.88,3.49V5a10.1,10.1,0,0,0-8.26,9.87.59.59,0,0,0,1.19,0A8.91,8.91,0,0,1,16.88,6.2V16.64l-4-3.82a1.06,1.06,0,0,1-.22-.64,1.16,1.16,0,0,1,1.18-1.11h0a1,1,0,0,1,.84.46.86.86,0,0,1,.08.66.55.55,0,0,1-.27.33.59.59,0,0,0-.25.8.6.6,0,0,0,.8.25,1.73,1.73,0,0,0,.86-1A2,2,0,0,0,15.81,11a2.18,2.18,0,0,0-1.88-1.08h0a2.33,2.33,0,0,0-2.37,2.29,2.23,2.23,0,0,0,.5,1.41l1.87,1.8,0,0-2.43,2.35,0,.05a2.23,2.23,0,0,0-.5,1.41,2.33,2.33,0,0,0,2.37,2.29h.05a2.17,2.17,0,0,0,1.88-1.09,2,2,0,0,0,.17-1.56,1.73,1.73,0,0,0-.86-1,.6.6,0,0,0-.8.25.59.59,0,0,0,.25.8.55.55,0,0,1,.27.33.86.86,0,0,1-.08.65,1,1,0,0,1-.83.47h0A1.16,1.16,0,0,1,12,19.23a1.06,1.06,0,0,1,.22-.65l2.4-2.32.05-.06,2,2a.56.56,0,0,0,.12.08v3.14l-.06,0-5.28,5.14L6.92,22.12a1.06,1.06,0,0,1-.22-.64,1.16,1.16,0,0,1,1.18-1.11h0a1,1,0,0,1,.84.46.86.86,0,0,1,.08.66.55.55,0,0,1-.27.33.59.59,0,0,0-.25.8.6.6,0,0,0,.8.25,1.73,1.73,0,0,0,.86-1,2,2,0,0,0-.17-1.57,2.18,2.18,0,0,0-1.88-1.08h0a2.33,2.33,0,0,0-2.37,2.29A2.25,2.25,0,0,0,6,22.88l.05.05,4.62,4.46L6.23,31.74l0,.05a2.25,2.25,0,0,0-.5,1.41,2.33,2.33,0,0,0,2.37,2.29h.05A2.17,2.17,0,0,0,10,34.4a2,2,0,0,0,.17-1.56,1.73,1.73,0,0,0-.86-1,.6.6,0,0,0-.8.25.59.59,0,0,0,.25.8.55.55,0,0,1,.27.34.86.86,0,0,1-.08.65,1,1,0,0,1-.84.46h0A1.16,1.16,0,0,1,6.87,33.2a1.05,1.05,0,0,1,.22-.64l4.45-4.33,2.74,2.65v4a.59.59,0,0,0,1.19,0V30.62a.59.59,0,0,0-.18-.42l-2.9-2.8L16.88,23V47.25a27.65,27.65,0,0,1-5.14-2.31l3.52-3.42h0l.07-.08,0-.06,0-.05a.6.6,0,0,0,0-.1h0a.6.6,0,0,0,0-.12h0V38a.59.59,0,0,0,0-.08,2.25,2.25,0,0,0-.68-1.33,2.42,2.42,0,0,0-3.33,0l0,0a2.07,2.07,0,0,0-.54,2.08,2,2,0,0,0,2.36,1.35.59.59,0,0,0,.4-.73.6.6,0,0,0-.74-.4.78.78,0,0,1-.89-.58.91.91,0,0,1,.24-.87l0,0a1.23,1.23,0,0,1,1.67,0,1.08,1.08,0,0,1,.32.61v2.8L10.7,44.3A21.66,21.66,0,0,1,7,41.3V36.37a.6.6,0,0,0-1.19,0V40a20.85,20.85,0,0,1-2.42-3.69,19.91,19.91,0,0,1-2.24-8.12v-27H36.48Z"/><path id="_Path_" data-name="&lt;Path&gt;" class="cls-1" d="M6.43,30.37a.59.59,0,0,0,.6-.59V24.9a.6.6,0,0,0-1.19,0v4.88A.59.59,0,0,0,6.43,30.37Z"/><path id="_Path_2" data-name="&lt;Path&gt;" class="cls-1" d="M31.23,24.31a.59.59,0,0,0-.59.59v4.88a.6.6,0,0,0,1.19,0V24.9A.59.59,0,0,0,31.23,24.31Z"/></g></g></g></svg>