<svg xmlns="http://www.w3.org/2000/svg" viewBox="0 0 52.99 61"><defs><style>.cls-1,.cls-2{fill:#fff;}.cls-2{stroke:#d59b68;stroke-miterlimit:10;stroke-width:2.06px;}</style></defs><title>资源 2</title><g id="图层_2" data-name="图层 2"><g id="图层_1-2" data-name="图层 1"><path class="cls-1" d="M26.77,24.63a9.42,9.42,0,1,1,9.42-9.42A9.43,9.43,0,0,1,26.77,24.63Zm0-17.11a7.68,7.68,0,1,0,7.68,7.68A7.69,7.69,0,0,0,26.77,7.52Z"/><path class="cls-1" d="M26.77,18.92a3.71,3.71,0,1,1,3.72-3.71A3.72,3.72,0,0,1,26.77,18.92Zm0-5.69a2,2,0,1,0,2,2A2,2,0,0,0,26.77,13.23Z"/><polygon class="cls-1" points="9.99 61 17.35 15.07 19.07 15.34 13.62 49.33 25.98 23.39 27.55 24.13 9.99 61"/><polygon class="cls-1" points="43.54 61 25.98 24.13 27.55 23.39 39.91 49.33 34.46 15.34 36.18 15.07 43.54 61"/><polygon class="cls-1" points="29.96 6.88 28.22 6.88 28.22 1.74 25.32 1.74 25.32 6.88 23.59 6.88 23.59 0 29.96 0 29.96 6.88"/><path class="cls-1" d="M45.51,49.17,44.26,48a24.73,24.73,0,0,0-.8-35.25l1.19-1.26a26.47,26.47,0,0,1,.86,37.73Z"/><path class="cls-1" d="M7.34,49a26.47,26.47,0,0,1,1-37.58L9.53,12.7A24.74,24.74,0,0,0,8.6,47.82Z"/><path class="cls-2" d="M44.06,12.07"/><path class="cls-2" d="M8.93,12.07"/><path class="cls-2" d="M8.93,49.38"/><path class="cls-2" d="M44.06,49.38"/><path class="cls-2" d="M8.93,12.07"/><path class="cls-2" d="M44.06,12.07"/><path class="cls-2" d="M44.06,49.38"/><path class="cls-2" d="M8.93,49.38"/><path class="cls-1" d="M26.5,42.53A26.38,26.38,0,0,1,8.34,35.32l1.19-1.27a24.73,24.73,0,0,0,33.93,0l1.19,1.27A26.39,26.39,0,0,1,26.5,42.53Z"/><path class="cls-1" d="M26.5,42.53A26.38,26.38,0,0,1,8.34,35.32l1.19-1.27a24.73,24.73,0,0,0,33.93,0l1.19,1.27A26.39,26.39,0,0,1,26.5,42.53Z"/><rect class="cls-1" x="25.47" y="38.13" width="1.74" height="7.25"/></g></g></svg>