<svg xmlns="http://www.w3.org/2000/svg" viewBox="0 0 62.36 52.7"><defs><style>.cls-1{fill:#fff;}</style></defs><title>资源 5</title><g id="图层_2" data-name="图层 2"><g id="图层_1-2" data-name="图层 1"><path class="cls-1" d="M26.14,32.09H11.34c-6.22,0-6.86-5-6.86-5.09-.28-2.41.17-4.2,1.32-5.32a4.54,4.54,0,0,1,3.55-1.14L9.1,22.24A2.8,2.8,0,0,0,7,22.92c-.73.72-1,2.06-.8,3.88,0,.14.51,3.56,5.14,3.56H26.14Z"/><path class="cls-1" d="M51.27,37H40.1V35.32h11a5.48,5.48,0,0,0,4-4.34l1.7.32A7.2,7.2,0,0,1,51.35,37Z"/><path class="cls-1" d="M28,37H9.06C2.15,37,.11,30.13,0,26.48,0,17,5.78,14.3,8.84,14.19H55.15c5,0,6.9,5.46,7.21,8.34v.09c0,7.46-3.66,9.22-3.82,9.29l-.17.08H42.11V30.27H57.94c.54-.37,2.67-2.17,2.68-7.59-.07-.63-.92-6.75-5.48-6.75H8.87c-.26,0-7.14.44-7.14,10.53,0,.33.37,8.87,7.33,8.87H28Z"/><path class="cls-1" d="M11.93,32l-.86-1.5.43.75-.44-.75c.16-.09,3.85-2.37,2.4-8.85,0,0-1.9-6.22-6.24-5.33l-.35-1.7c4.71-1,7.46,3.89,8.26,6.59C16.89,29,12.13,31.86,11.93,32Z"/><path class="cls-1" d="M34,39.33a3.47,3.47,0,0,1-2.47-1,3.3,3.3,0,0,1-.44-.56,3.1,3.1,0,0,1-.59.06,3.49,3.49,0,0,1-3.48-3.48,3.29,3.29,0,0,1,.08-.71,3.23,3.23,0,0,1-.46-.38,3.49,3.49,0,0,1,0-4.93,3.31,3.31,0,0,1,.56-.44,3.15,3.15,0,0,1-.06-.59,3.49,3.49,0,0,1,3.49-3.48,3.13,3.13,0,0,1,.71.08,3.1,3.1,0,0,1,.38-.46,3.48,3.48,0,0,1,4.93,0,3,3,0,0,1,.44.56,3.16,3.16,0,0,1,.59-.06,3.49,3.49,0,0,1,3.48,3.48,3.13,3.13,0,0,1-.08.71,3.14,3.14,0,0,1,.46.38,3.49,3.49,0,0,1,0,4.93,3.27,3.27,0,0,1-.56.44,3.1,3.1,0,0,1,.06.59,3.49,3.49,0,0,1-3.48,3.48,3.27,3.27,0,0,1-.71-.08,3.13,3.13,0,0,1-.37.46A3.45,3.45,0,0,1,34,39.33Zm-2.47-2.58.16.31a2.56,2.56,0,0,0,.46.65,2.69,2.69,0,0,0,3.7,0,2.59,2.59,0,0,0,.42-.57l.17-.3.33.11a2.57,2.57,0,0,0,.78.13,2.58,2.58,0,0,0,2.51-3.31L40,33.43l.31-.16a2.63,2.63,0,0,0,.65-.46,2.58,2.58,0,0,0-.57-4.12l-.3-.17.11-.33a2.5,2.5,0,0,0,.13-.78,2.62,2.62,0,0,0-2.62-2.62,2.58,2.58,0,0,0-.69.1l-.34.09-.16-.31a2.58,2.58,0,0,0-.46-.64,2.68,2.68,0,0,0-3.71,0,2.52,2.52,0,0,0-.41.56l-.17.31-.33-.11a2.58,2.58,0,0,0-3.4,2.49,2.54,2.54,0,0,0,.11.69l.09.34-.31.16a2.57,2.57,0,0,0-.65.46,2.62,2.62,0,0,0,0,3.7,2.57,2.57,0,0,0,.56.42l.3.17-.1.33a2.58,2.58,0,0,0,2.49,3.4,2.64,2.64,0,0,0,.69-.11Z"/><polygon class="cls-1" points="37.01 37.73 37.01 44.34 34.12 41.55 31.13 44.34 31.13 37.42 33.91 38.84 37.01 37.73"/><circle class="cls-1" cx="34.13" cy="30.86" r="4"/><path class="cls-1" d="M37.34,24.38s.12-8.55-2.69-9.32h-5s2.49,2.74,1.67,9.24l2.83-1.6Z"/><path class="cls-1" d="M50.27,10.62a24.62,24.62,0,0,0-37.87,0L11.07,9.51a26.35,26.35,0,0,1,40.53,0Z"/><path class="cls-1" d="M31.34,52.7a26.1,26.1,0,0,1-19.13-8.24l1.26-1.19a24.6,24.6,0,0,0,35.75,0l1.26,1.19A26.1,26.1,0,0,1,31.34,52.7Z"/></g></g></svg>