<svg xmlns="http://www.w3.org/2000/svg" viewBox="0 0 55.17 54.78"><defs><style>.cls-1,.cls-2{fill:#fff;}.cls-2{stroke:#d59b68;stroke-miterlimit:10;stroke-width:1.82px;}</style></defs><title>资源 3</title><g id="图层_2" data-name="图层 2"><g id="图层_1-2" data-name="图层 1"><polygon class="cls-1" points="21.63 28.31 8.59 15.27 5.27 4.22 16.26 8.25 29 21.05 27.72 22.33 15.25 9.81 8.06 7.18 10.2 14.31 22.92 27.03 21.63 28.31"/><path class="cls-1" d="M46.15,51.54a4.13,4.13,0,0,1-1.58-.29l-.15-.07L27.49,34.54l1.27-1.29L45.43,49.63a3.32,3.32,0,0,0,3.28-1.12,4.4,4.4,0,0,0,1.43-3.56L33.82,28.55l1.29-1.29L51.82,44l.06.24A6,6,0,0,1,50,49.79,5.36,5.36,0,0,1,46.15,51.54Z"/><rect class="cls-1" x="8.16" y="10.91" width="8.38" height="1.82" transform="translate(-4.74 12.19) rotate(-44.97)"/><path class="cls-1" d="M10.63,53.52,3.27,46.3,47.82.88l7.35,7.21ZM5.84,46.28l4.76,4.67,42-42.83L47.84,3.45Z"/><rect class="cls-1" x="11.25" y="46.58" width="1.82" height="3.35" transform="translate(-30.8 23.14) rotate(-45.54)"/><rect class="cls-1" x="49.4" y="7.69" width="1.82" height="3.35" transform="translate(8.38 38.7) rotate(-45.53)"/><rect class="cls-1" x="46.85" y="10.28" width="1.82" height="3.35" transform="translate(5.79 37.69) rotate(-45.56)"/><rect class="cls-1" x="44.31" y="12.87" width="1.82" height="3.35" transform="translate(3.17 36.64) rotate(-45.55)"/><rect class="cls-1" x="41.76" y="15.46" width="1.82" height="3.35" transform="translate(0.56 35.61) rotate(-45.57)"/><rect class="cls-1" x="39.22" y="18.05" width="1.82" height="3.35" transform="translate(-2.06 34.56) rotate(-45.55)"/><rect class="cls-1" x="36.69" y="20.67" width="1.82" height="3.35" transform="translate(-4.68 33.55) rotate(-45.56)"/><rect class="cls-1" x="34.15" y="23.26" width="1.82" height="3.35" transform="translate(-7.3 32.48) rotate(-45.52)"/><rect class="cls-1" x="31.61" y="25.85" width="1.82" height="3.35" transform="translate(-9.9 31.46) rotate(-45.55)"/><rect class="cls-1" x="29.06" y="28.44" width="1.82" height="3.35" transform="translate(-12.52 30.43) rotate(-45.57)"/><rect class="cls-1" x="26.52" y="31.03" width="1.82" height="3.35" transform="translate(-15.13 29.4) rotate(-45.58)"/><rect class="cls-1" x="23.97" y="33.62" width="1.82" height="3.35" transform="translate(-17.74 28.34) rotate(-45.54)"/><rect class="cls-1" x="21.43" y="36.22" width="1.82" height="3.35" transform="translate(-20.36 27.31) rotate(-45.55)"/><rect class="cls-1" x="18.88" y="38.81" width="1.82" height="3.35" transform="translate(-22.97 26.27) rotate(-45.56)"/><rect class="cls-1" x="16.34" y="41.4" width="1.82" height="3.35" transform="translate(-25.58 25.22) rotate(-45.54)"/><rect class="cls-1" x="13.79" y="43.99" width="1.82" height="3.35" transform="translate(-28.2 24.2) rotate(-45.57)"/><rect class="cls-1" x="41.4" y="44.14" width="8.47" height="1.82" transform="translate(-18.48 45.49) rotate(-45.02)"/><rect class="cls-1" x="18.27" y="8.85" width="1.82" height="18.57" transform="translate(-7.21 18.87) rotate(-45)"/><rect class="cls-1" x="37.46" y="28.2" width="1.82" height="19.97" transform="translate(-15.77 38.32) rotate(-45)"/><path class="cls-2" d="M37.77,3"/><path class="cls-2" d="M51.76,17"/><path class="cls-2" d="M3,17"/><path class="cls-2" d="M17,3"/><path class="cls-2" d="M17,51.76"/><path class="cls-2" d="M3,37.77"/><path class="cls-2" d="M51.76,37.77"/><path class="cls-2" d="M37.77,51.76"/><path class="cls-1" d="M37.41,3.86a25.63,25.63,0,0,0-20,0l-.71-1.67a27.45,27.45,0,0,1,21.47,0Z"/><path class="cls-1" d="M27.39,54.78A27.22,27.22,0,0,1,16.66,52.6l.71-1.67a25.63,25.63,0,0,0,20,0l.71,1.67A27.19,27.19,0,0,1,27.39,54.78Z"/><path class="cls-1" d="M37.41,3.86a25.63,25.63,0,0,0-20,0l-.71-1.67a27.45,27.45,0,0,1,21.47,0Z"/><path class="cls-1" d="M27.39,54.78A27.22,27.22,0,0,1,16.66,52.6l.71-1.67a25.63,25.63,0,0,0,20,0l.71,1.67A27.19,27.19,0,0,1,27.39,54.78Z"/><path class="cls-1" d="M52.6,38.13l-1.67-.71a25.63,25.63,0,0,0,0-20l1.67-.71a27.46,27.46,0,0,1,0,21.47Z"/><path class="cls-1" d="M2.19,38.13a27.45,27.45,0,0,1,0-21.47l1.67.71a25.64,25.64,0,0,0,0,20Z"/><path class="cls-1" d="M52.6,38.13l-1.67-.71a25.63,25.63,0,0,0,0-20l1.67-.71a27.46,27.46,0,0,1,0,21.47Z"/><path class="cls-1" d="M2.19,38.13a27.45,27.45,0,0,1,0-21.47l1.67.71a25.64,25.64,0,0,0,0,20Z"/></g></g></svg>