<svg xmlns="http://www.w3.org/2000/svg" viewBox="0 0 54.81 52.79"><defs><style>.cls-1{fill:#fff;}</style></defs><title>资源 4</title><g id="图层_2" data-name="图层 2"><g id="图层_1-2" data-name="图层 1"><path class="cls-1" d="M46.26,10.63a24.66,24.66,0,0,0-37.94,0L7,9.53a26.39,26.39,0,0,1,40.6,0Z"/><path class="cls-1" d="M27.29,52.79A26.15,26.15,0,0,1,8.12,44.54l1.26-1.19a24.64,24.64,0,0,0,35.81,0l1.26,1.19A26.15,26.15,0,0,1,27.29,52.79Z"/><path class="cls-1" d="M27.5,32,0,23.38V19l27.69-8.11,27.12,8v4.25ZM1.73,22.11,27.5,30.17l25.58-8.25V20.23l-25.39-7.5-26,7.6Z"/><path class="cls-1" d="M27.56,42.16c-9.71,0-14.43-4.72-14.62-4.92L12.7,37V26.71h1.73v9.54c1,.9,5.39,4.18,13.14,4.18s11.92-3.28,12.91-4.17V26.61h1.73V37l-.23.25C41.79,37.43,37.28,42.16,27.56,42.16Z"/><polygon class="cls-1" points="47.36 29.4 45.63 29.4 45.63 25.59 27.43 19.83 27.95 18.18 47.36 24.32 47.36 29.4"/><path class="cls-1" d="M48.57,32.15H46.83V30.9a.91.91,0,0,0-.13-.53s0-.05-.2-.05-.45,0-.46.59v1.23H44.31V30.9A2.58,2.58,0,0,1,45,29.18a2.09,2.09,0,0,1,1.52-.6,2,2,0,0,1,1.45.59,2.57,2.57,0,0,1,.61,1.77Z"/><rect class="cls-1" x="44.41" y="32.91" width="0.87" height="2.49"/><rect class="cls-1" x="46" y="32.91" width="0.87" height="2.49"/><rect class="cls-1" x="47.59" y="32.91" width="0.87" height="2.49"/></g></g></svg>